<?xml version="1.0" standalone="no"?>
<!DOCTYPE svg PUBLIC "-//W3C//DTD SVG 20010904//EN"
 "http://www.w3.org/TR/2001/REC-SVG-20010904/DTD/svg10.dtd">
<svg version="1.0" xmlns="http://www.w3.org/2000/svg"
 width="588.000000pt" height="588.000000pt" viewBox="0 0 588.000000 588.000000"
 preserveAspectRatio="xMidYMid meet">
<metadata>
Created by potrace 1.14, written by Peter Selinger 2001-2017
</metadata>
<g transform="translate(0.000000,588.000000) scale(0.100000,-0.100000)"
fill="#000000" stroke="none">
<path d="M4 5840 c1 -21 6 -43 11 -47 4 -4 5 -2 1 5 -4 6 0 19 8 28 18 18 21
34 5 34 -5 0 -7 -5 -3 -12 4 -7 3 -8 -5 -4 -9 6 -9 11 0 22 9 11 8 14 -4 14
-11 0 -15 -10 -13 -40z"/>
<path d="M150 5869 c0 -5 5 -7 10 -4 6 3 10 8 10 11 0 2 -4 4 -10 4 -5 0 -10
-5 -10 -11z"/>
<path d="M169 5853 c-23 -25 -23 -25 -1 -12 12 8 22 18 22 24 0 5 5 3 10 -5 6
-9 10 -10 10 -3 0 23 -18 22 -41 -4z"/>
<path d="M315 5870 c-3 -5 -4 -14 -1 -19 4 -5 0 -12 -6 -15 -7 -3 -3 -3 9 -1
32 9 40 -15 12 -38 -24 -20 -24 -20 -1 -14 12 3 22 1 22 -4 0 -15 -29 -22 -43
-11 -15 13 -31 4 -40 -21 -5 -13 -3 -16 6 -10 20 12 47 14 47 2 0 -5 -4 -7
-10 -4 -5 3 -10 2 -10 -4 0 -6 -7 -8 -15 -5 -10 4 -15 0 -15 -12 -1 -18 -1
-18 -11 -1 -5 9 -7 22 -4 27 3 6 1 10 -5 10 -8 0 -10 -10 -6 -27 5 -22 4 -24
-4 -11 -6 10 -18 15 -28 12 -14 -5 -13 -2 3 11 12 9 19 25 17 39 -2 14 3 26
12 29 11 4 16 1 16 -11 0 -12 4 -10 13 8 14 25 12 43 -1 25 -12 -18 -40 -16
-45 2 -3 10 -5 -3 -6 -29 -1 -36 -5 -48 -16 -48 -8 0 -15 -6 -15 -14 0 -8 -3
-17 -8 -20 -4 -2 -7 14 -6 37 1 23 0 37 -3 30 -2 -6 -16 -9 -34 -6 -17 2 -29
0 -29 -7 0 -6 6 -10 13 -9 25 3 38 -1 32 -11 -3 -5 -1 -10 5 -10 6 0 8 -5 5
-11 -4 -6 -13 -8 -20 -5 -16 6 -50 -30 -36 -38 5 -4 12 -2 15 3 8 13 44 2 50
-16 6 -14 3 -13 -18 1 -14 9 -27 12 -31 7 -3 -5 -1 -12 5 -16 5 -3 10 -11 10
-16 0 -6 -11 3 -24 18 -16 18 -21 32 -15 39 7 8 1 12 -17 12 -14 0 -22 -3 -18
-7 15 -10 15 -31 0 -25 -11 4 -14 -2 -12 -20 2 -14 -1 -26 -5 -26 -5 0 -9 7
-9 16 0 11 -5 14 -16 10 -9 -3 -18 -6 -20 -6 -9 0 -3 -37 9 -49 9 -11 9 -12 0
-7 -10 6 -13 -565 -13 -2798 l0 -2806 785 0 c432 0 785 2 785 5 0 3 -12 18
-27 32 -16 14 -27 30 -25 35 1 5 -2 7 -8 3 -9 -5 -31 12 -148 119 -23 22 -40
46 -38 53 3 7 0 15 -6 19 -7 4 -8 3 -4 -4 4 -7 5 -12 2 -12 -6 0 -56 49 -56
55 0 3 -18 23 -40 45 -24 24 -38 46 -34 53 4 7 3 9 -1 4 -10 -9 -45 21 -45 40
0 7 -4 12 -9 10 -10 -3 -91 81 -92 97 -1 6 -1 18 0 26 1 11 0 12 -7 2 -10 -14
-17 -7 -69 69 -18 26 -29 50 -25 54 4 5 2 5 -4 2 -10 -6 -54 43 -54 61 0 4 -9
17 -19 29 -10 11 -27 35 -36 53 -10 19 -33 55 -51 82 -19 26 -34 53 -34 59 0
6 -7 17 -16 26 -8 9 -13 22 -10 30 3 8 2 12 -3 9 -4 -3 -18 13 -30 34 -21 39
-24 58 -8 52 5 -1 6 2 2 7 -3 6 -12 8 -19 5 -16 -6 -81 119 -72 141 3 8 0 12
-7 9 -8 -3 -27 25 -49 73 -57 122 -68 158 -118 387 -11 48 -6 53 82 90 37 16
65 32 63 37 -3 4 0 11 6 15 8 4 9 3 5 -4 -11 -18 30 -15 48 3 8 8 24 15 35 15
11 0 23 5 27 11 3 6 19 9 35 7 17 -3 29 0 29 6 1 6 12 -2 26 -19 15 -16 23
-25 20 -18 -4 7 3 22 14 33 l20 20 -22 10 c-13 5 -17 9 -11 9 7 1 12 6 10 12
-1 6 5 14 13 16 13 4 13 3 0 -6 -11 -8 -12 -11 -2 -11 7 0 10 -4 7 -10 -9 -15
4 -12 21 5 9 8 21 15 27 14 9 0 8 -2 -1 -6 -21 -8 -13 -25 11 -19 12 3 16 3 9
0 -18 -9 -14 -22 8 -26 18 -3 18 -4 -4 -14 -19 -9 -23 -9 -20 1 3 6 -2 17 -10
24 -12 10 -19 8 -35 -8 -26 -26 -26 -32 -3 -25 16 5 16 5 -1 -6 -9 -6 -15 -15
-12 -21 4 -5 2 -9 -4 -9 -6 0 -8 -7 -5 -15 4 -8 12 -15 19 -15 18 0 32 23 17
28 -7 2 -12 8 -12 14 0 6 9 3 19 -6 18 -16 24 -66 9 -66 -5 0 -8 -4 -8 -10 0
-5 7 -7 15 -4 10 4 13 13 10 25 -4 11 -2 19 4 19 5 0 12 -8 14 -17 4 -14 5
-12 6 5 0 12 6 22 11 22 7 0 7 7 -1 21 -8 15 -8 24 0 32 6 6 11 7 11 2 0 -6 4
-4 9 4 11 17 3 43 -10 35 -13 -8 -11 10 4 25 6 8 7 11 2 8 -7 -3 -12 8 -13 29
-2 19 2 34 8 34 5 0 10 -12 10 -27 0 -20 3 -24 9 -14 5 8 8 -2 7 -28 0 -25 5
-45 13 -50 7 -5 13 -12 14 -17 1 -5 6 -8 10 -6 4 1 3 -7 -3 -17 -9 -17 -7 -19
9 -16 22 4 35 -22 25 -49 -4 -11 -2 -15 7 -13 8 2 11 2 7 0 -8 -5 8 -38 28
-60 7 -6 14 -9 18 -6 3 4 6 1 6 -6 0 -7 4 -10 9 -7 5 4 7 -4 4 -16 -4 -19 -3
-20 6 -8 6 8 11 10 11 4 0 -6 -7 -17 -15 -24 -12 -10 -15 -10 -15 4 0 9 -13
28 -30 42 -16 15 -27 32 -24 38 3 6 -1 3 -9 -6 -8 -10 -17 -16 -21 -13 -3 3
-3 1 1 -4 5 -5 17 -11 28 -13 16 -3 19 -10 17 -37 -2 -25 2 -34 17 -38 10 -3
24 -14 30 -26 10 -20 10 -20 5 4 -3 15 -1 30 5 33 6 4 11 0 11 -8 0 -9 5 -16
11 -16 5 0 7 6 3 12 -4 7 3 3 15 -10 19 -20 21 -25 9 -39 -8 -11 -8 -14 -1
-10 7 4 16 0 22 -10 6 -11 11 -13 11 -5 0 7 5 10 11 7 7 -5 4 -14 -8 -27 -18
-20 -17 -20 3 -14 14 4 21 2 21 -7 0 -21 34 -67 46 -60 6 3 7 1 3 -5 -4 -6 2
-19 13 -28 17 -15 19 -50 2 -40 -4 3 -7 -4 -7 -15 0 -19 1 -18 19 3 10 13 16
17 12 11 -3 -7 -2 -13 4 -13 5 0 20 -18 32 -40 12 -21 25 -37 29 -35 4 3 7 -3
6 -13 0 -9 4 -16 10 -15 7 1 10 -6 7 -18 -5 -18 -6 -19 -20 -2 -14 17 -14 17
-10 -5 3 -12 1 -20 -3 -17 -5 3 -14 -3 -20 -12 -10 -16 -11 -16 -6 -1 3 10 1
20 -4 23 -6 4 -10 14 -10 23 1 13 5 11 16 -8 8 -14 13 -17 10 -8 -3 9 0 18 6
20 13 5 1 48 -13 48 -6 0 -7 -5 -4 -10 3 -6 1 -10 -4 -10 -6 0 -12 5 -12 10
-1 6 -3 15 -4 20 -1 6 -3 13 -4 18 -1 9 -106 6 -122 -3 -13 -9 7 -25 31 -24
10 0 8 3 -5 9 -17 7 -15 9 12 9 39 1 43 -5 47 -71 2 -29 7 -69 10 -88 6 -27 3
-40 -12 -56 -14 -14 -17 -26 -11 -35 7 -11 9 -11 9 4 0 9 4 17 10 17 5 0 7 -7
3 -16 -4 -10 -1 -15 8 -14 33 5 40 0 33 -22 -6 -20 -5 -21 10 -9 14 12 16 12
10 -3 -4 -10 -15 -16 -27 -14 -11 2 -22 -3 -24 -10 -3 -7 1 -10 9 -7 7 3 20 0
28 -5 12 -7 13 -13 3 -27 -6 -10 -16 -17 -21 -16 -5 1 -10 -8 -9 -20 0 -12 -3
-29 -7 -38 -4 -10 -1 -22 7 -31 8 -8 17 -23 20 -34 4 -16 5 -16 6 4 0 12 6 22
12 22 6 0 8 -9 4 -20 -5 -16 -2 -20 19 -20 19 0 24 4 19 16 -5 13 -7 13 -14 2
-6 -9 -9 -6 -9 10 0 19 3 21 19 12 26 -13 34 -27 21 -35 -6 -4 -8 -10 -5 -15
3 -4 -4 -6 -15 -3 -29 8 -56 -5 -42 -19 8 -8 15 -8 26 1 10 9 16 9 21 1 4 -6
4 -14 1 -17 -3 -3 4 -17 14 -31 11 -13 19 -34 19 -46 -1 -17 -2 -17 -6 -3 -2
9 -8 17 -13 17 -9 0 -24 49 -21 69 2 13 0 13 -14 1 -9 -7 -12 -16 -8 -19 4 -3
18 -27 30 -53 23 -49 42 -62 44 -30 1 11 4 8 8 -8 5 -14 4 -33 -2 -44 -8 -17
-6 -18 34 -14 24 3 36 3 27 1 -10 -3 -18 -9 -18 -14 0 -6 -4 -7 -10 -4 -5 3
-10 2 -10 -3 0 -13 54 -22 61 -11 3 6 16 6 33 -1 17 -6 25 -14 20 -22 -6 -9
-9 -9 -12 0 -2 7 -12 12 -23 12 -13 0 -17 -5 -12 -17 4 -10 8 -12 11 -5 2 8 8
8 19 -3 8 -8 18 -13 23 -10 5 3 5 -7 1 -22 -5 -18 -14 -27 -24 -25 -10 2 -17
-2 -17 -8 0 -6 4 -9 9 -5 5 3 12 -3 14 -12 4 -15 5 -15 6 2 1 17 3 18 12 5 9
-13 10 -12 5 3 -4 13 0 17 18 17 14 0 26 -5 28 -11 3 -9 10 -9 26 0 12 6 22 7
22 2 0 -5 11 -8 25 -6 14 1 25 -2 25 -6 0 -5 -9 -9 -20 -9 -14 0 -20 -7 -20
-22 0 -17 3 -19 9 -10 6 11 9 9 14 -7 2 -11 0 -23 -7 -26 -6 -3 -1 -3 12 -1
14 3 22 -1 22 -10 0 -8 6 -14 13 -14 9 0 9 -2 -1 -9 -10 -6 -7 -10 12 -13 14
-3 23 -1 20 3 -3 5 -1 9 4 9 6 0 12 -6 15 -13 7 -20 64 -20 71 -1 4 9 5 18 3
20 -6 6 -47 -8 -42 -15 2 -4 -2 -8 -10 -8 -8 0 -15 2 -15 4 0 9 25 28 38 29
30 2 34 5 29 17 -3 8 -1 20 4 28 6 10 9 7 9 -13 0 -16 5 -28 11 -28 7 0 9 10
5 27 -5 21 -4 24 4 13 5 -8 10 -10 10 -4 0 7 9 14 20 17 10 3 19 2 18 -2 -2
-19 3 -31 12 -26 5 3 7 13 4 23 -5 14 -4 15 5 2 7 -10 11 -11 11 -2 0 6 5 12
12 12 9 0 9 -3 1 -11 -9 -9 -7 -18 5 -38 9 -14 21 -29 26 -32 5 -4 5 -12 2
-18 -5 -7 1 -11 13 -11 12 0 21 -6 21 -14 0 -17 27 -40 32 -27 1 5 10 2 18 -7
13 -14 12 -15 -2 -9 -12 4 -16 1 -15 -13 1 -10 4 -17 8 -14 13 8 109 -17 109
-28 0 -6 -3 -8 -7 -5 -3 4 -12 2 -20 -5 -11 -8 -12 -7 -7 6 4 10 1 16 -9 16
-10 0 -13 -6 -10 -21 4 -14 12 -19 24 -16 11 3 19 1 19 -4 0 -5 -6 -9 -12 -10
-7 0 -21 -2 -30 -4 -14 -2 -18 4 -18 26 0 25 -4 29 -29 29 -17 0 -33 5 -36 10
-4 6 -11 7 -17 4 -7 -5 -8 -2 -3 6 5 9 4 11 -4 6 -6 -4 -9 -12 -6 -17 7 -10
-6 -12 -28 -3 -12 4 -13 11 -5 35 5 16 15 29 21 29 5 0 2 9 -8 20 -17 19 -20
19 -42 5 -15 -10 -23 -12 -23 -4 0 8 -4 9 -13 0 -8 -6 -17 -8 -20 -4 -4 3 -7
1 -7 -6 0 -7 10 -21 23 -31 12 -10 18 -22 13 -27 -5 -4 -11 -2 -13 5 -3 6 -9
12 -15 12 -7 0 -7 -4 1 -13 8 -10 7 -17 -2 -27 -10 -12 -9 -12 6 -1 11 9 17
10 17 2 0 -6 6 -11 14 -11 8 0 30 -9 50 -20 19 -12 37 -17 39 -12 3 4 -16 17
-44 27 -27 11 -49 23 -49 27 0 12 6 10 47 -12 34 -18 37 -18 49 -2 8 11 13 12
14 5 0 -7 7 -13 15 -13 8 0 17 -12 21 -27 3 -16 7 -34 10 -41 2 -7 -3 -12 -13
-10 -9 2 -18 -4 -20 -12 -4 -13 -3 -13 6 0 9 13 11 12 11 -3 0 -16 2 -17 15
-4 8 9 13 28 11 48 -2 19 -1 24 1 12 2 -13 12 -23 21 -23 15 0 15 -2 2 -10
-13 -9 -13 -10 0 -10 9 0 11 -3 5 -8 -15 -11 -17 -35 -3 -29 7 2 12 9 11 15
-1 5 8 8 20 6 l22 -5 -22 10 c-27 12 -21 40 7 38 10 -1 16 -5 13 -10 -3 -4 3
-15 13 -22 18 -13 17 -14 -13 -21 -18 -3 -31 -11 -30 -18 1 -6 -4 -10 -10 -9
-7 2 -13 -4 -13 -12 0 -17 25 -11 54 14 12 10 17 11 12 3 -6 -10 -3 -13 10
-10 11 2 18 11 16 20 -1 9 6 19 18 23 19 6 20 8 5 19 -15 10 -14 12 5 12 15 0
20 -5 17 -18 -7 -24 10 -23 18 1 4 13 12 17 26 14 15 -4 17 -8 8 -14 -7 -4
-17 -5 -23 -2 -5 3 -6 1 -3 -4 4 -6 -7 -16 -23 -23 -16 -7 -32 -21 -35 -31 -5
-15 -13 -18 -33 -14 -24 5 -23 4 6 -9 17 -8 32 -20 32 -26 0 -5 5 -10 11 -10
5 0 7 5 4 10 -3 6 -1 10 4 10 6 0 12 -15 12 -32 2 -28 2 -29 6 -8 3 14 9 30
15 35 6 7 7 0 4 -20 -4 -16 -3 -24 0 -17 3 6 10 10 14 7 9 -6 5 34 -4 43 -3 2
-1 13 5 23 8 16 6 19 -15 19 -18 0 -26 -6 -29 -22 l-4 -23 -2 22 c0 14 8 27
22 34 26 15 27 15 38 -2 4 -8 11 -10 16 -6 9 10 -18 28 -31 20 -5 -3 -6 -1 -2
6 4 6 11 9 16 6 5 -3 14 3 19 14 14 26 14 28 -5 35 -10 4 -13 2 -8 -6 5 -8 2
-9 -10 -5 -10 4 -23 7 -29 7 -7 0 -6 4 3 10 12 8 11 10 -7 10 -12 0 -25 -4
-28 -10 -3 -5 -15 -10 -26 -10 -11 0 -17 -4 -14 -10 3 -5 2 -10 -2 -10 -5 0
-9 16 -9 35 0 19 2 35 4 35 2 0 31 -7 64 -16 33 -8 67 -13 75 -10 8 3 12 2 9
-3 -6 -9 48 -25 72 -22 6 1 12 -3 12 -9 0 -6 -4 -9 -9 -5 -13 8 -34 -33 -27
-51 4 -9 2 -12 -5 -8 -8 4 -9 -1 -4 -17 5 -19 4 -21 -4 -9 -10 14 -12 13 -15
-9 -3 -22 -21 -29 -35 -14 -12 13 -11 14 9 8 15 -5 20 -3 16 3 -3 6 -2 14 4
17 8 5 7 11 -1 21 -10 12 -9 13 6 8 13 -6 16 -4 10 5 -4 8 -2 17 6 22 11 7 10
11 -6 23 -18 13 -21 13 -28 -1 -5 -8 -6 -17 -3 -20 3 -4 6 -1 6 5 0 7 5 12 11
12 8 0 8 -5 -1 -15 -7 -8 -17 -12 -23 -8 -7 4 -8 0 -3 -13 13 -32 12 -39 -6
-38 -22 2 -31 -22 -14 -38 10 -10 11 -19 2 -38 -6 -14 -15 -28 -21 -32 -5 -4
711 -8 1593 -8 1579 0 1602 0 1602 19 0 11 -5 23 -10 26 -6 4 -7 11 -4 17 5 7
0 9 -14 6 -16 -4 -19 -2 -15 10 5 12 1 14 -15 10 -12 -4 -22 -2 -22 3 0 4 -7
6 -15 3 -8 -4 -12 -11 -8 -17 3 -5 1 -7 -5 -3 -5 3 -12 0 -15 -6 -2 -7 -7 -10
-11 -7 -10 9 39 68 83 101 35 26 47 29 84 24 71 -9 101 -18 134 -41 33 -22 34
-35 3 -35 -10 0 -23 -7 -30 -15 -7 -8 -16 -12 -21 -9 -5 3 -9 0 -9 -5 0 -6 -5
-11 -10 -11 -12 0 -59 -50 -60 -62 0 -5 11 -8 25 -8 15 0 24 5 23 13 -2 6 3
11 10 9 6 -1 12 4 12 12 0 16 37 46 56 46 7 0 14 -6 17 -12 2 -7 3 -5 2 5 -4
22 21 22 43 0 18 -17 19 -20 21 -53 1 -13 8 -20 21 -20 24 0 26 20 4 67 -13
25 -14 37 -5 46 6 6 11 22 11 35 l0 24 -19 -23 c-11 -13 -21 -22 -23 -19 -1 3
-19 23 -38 44 -19 22 -28 35 -20 30 8 -4 1 10 -16 31 -18 22 -31 42 -31 45 1
6 -35 63 -44 70 -10 8 -39 68 -39 80 0 6 -6 18 -12 25 -29 32 -37 43 -38 56
-5 33 2 52 28 76 15 15 21 23 13 18 -10 -6 -11 -2 -5 16 4 13 7 30 7 37 0 7 5
11 11 9 6 -3 10 -10 8 -16 -1 -7 2 -10 8 -6 5 3 13 -1 16 -9 3 -9 10 -14 14
-11 5 3 7 -2 6 -11 -1 -9 8 -27 21 -40 13 -13 23 -32 23 -44 0 -11 4 -19 9
-18 5 2 10 -1 11 -7 1 -5 9 -18 17 -27 9 -10 13 -18 9 -18 -4 0 3 -14 15 -32
13 -17 17 -28 10 -24 -10 7 -11 4 -2 -12 6 -12 16 -24 21 -27 6 -4 8 -11 5
-16 -4 -5 -2 -9 3 -9 6 0 13 -7 16 -16 3 -8 2 -12 -4 -9 -6 3 -7 -1 -4 -9 3
-9 10 -13 15 -10 13 8 11 -10 -4 -25 -9 -11 -9 -13 1 -7 7 4 12 1 12 -7 0 -8
20 -31 45 -51 l45 -37 0 31 c0 18 -12 49 -30 74 -16 24 -27 46 -24 48 2 3 -2
11 -11 18 -22 19 -18 35 15 63 18 16 26 28 19 32 -5 4 -19 -1 -29 -10 -19 -17
-46 -12 -34 6 3 5 9 7 14 4 9 -6 21 20 13 29 -4 3 -15 -1 -25 -11 -17 -15 -19
-15 -36 0 -10 9 -24 32 -32 52 -8 19 -17 35 -22 35 -4 0 -5 6 -2 13 2 7 -8 26
-23 42 -16 17 -35 42 -42 58 -8 15 -18 27 -23 27 -4 0 -8 7 -8 15 0 9 -8 30
-17 48 -9 18 -17 41 -17 52 -1 11 -6 19 -11 18 -6 -1 -12 7 -12 18 -1 12 3 17
10 13 9 -5 9 -4 0 6 -8 9 -9 19 -2 32 9 17 14 14 61 -29 135 -128 263 -277
252 -294 -4 -8 -3 -9 4 -5 9 5 12 245 12 937 0 957 0 955 -36 919 -7 -7 -16
-4 -28 9 -16 17 -16 25 -6 56 l12 36 22 -26 c12 -14 25 -25 29 -25 4 0 7 36 7
80 0 70 -2 80 -18 80 -10 0 -24 -9 -32 -20 -8 -11 -17 -20 -21 -20 -9 0 -22
39 -23 72 -1 24 1 27 18 22 25 -8 47 -30 39 -38 -4 -3 3 -6 15 -6 21 0 22 5
22 80 0 73 -2 80 -20 80 -11 0 -20 4 -20 9 0 21 13 41 26 41 11 0 14 16 14 63
l0 64 -31 -5 c-22 -3 -27 -7 -18 -13 10 -6 11 -9 2 -9 -7 0 -13 -9 -13 -20 0
-11 -4 -20 -9 -20 -5 0 -8 -10 -6 -22 2 -13 6 -43 9 -68 5 -36 4 -40 -4 -20
-8 22 -9 20 -5 -12 4 -37 3 -38 -28 -38 -29 -1 -30 -2 -15 -14 10 -7 14 -17
10 -21 -4 -5 1 -5 11 -2 9 4 17 2 17 -3 0 -6 -9 -10 -21 -10 -15 0 -19 -5 -15
-16 3 -9 2 -12 -5 -8 -6 3 -8 15 -6 26 4 14 1 18 -8 14 -19 -7 -26 18 -10 41
19 28 3 52 -20 30 -23 -23 -38 -21 -23 2 7 11 16 17 20 15 4 -3 8 0 8 6 0 6 4
9 8 6 5 -3 16 4 25 15 10 11 23 17 30 14 6 -4 4 0 -6 9 -15 12 -17 18 -7 33
11 17 11 17 6 0 -3 -11 -2 -15 4 -12 6 3 10 15 10 26 0 11 -4 17 -10 14 -6 -3
-7 1 -4 9 3 9 11 16 17 16 16 0 -1 14 -21 16 -9 2 -20 -2 -24 -9 -6 -9 -8 -9
-8 1 0 6 -7 12 -15 12 -8 0 -15 -8 -15 -17 0 -14 -3 -13 -16 5 -9 13 -22 21
-29 18 -11 -4 -13 9 -12 59 3 87 12 93 133 87 l94 -4 0 85 c0 72 -3 85 -17 89
-24 6 -54 -2 -48 -12 2 -4 -14 -11 -38 -15 -23 -4 -51 -10 -62 -12 -11 -2 -25
4 -32 14 -10 13 -13 14 -14 2 -1 -8 -5 2 -8 21 -10 55 28 183 60 201 11 5 19
21 19 35 0 17 4 23 13 18 8 -5 8 -2 -2 9 -7 9 -9 17 -3 17 5 0 13 7 16 16 4
10 2 13 -7 8 -9 -5 -9 -4 1 7 6 7 12 23 12 35 0 12 4 24 9 26 5 2 11 26 12 53
2 29 9 55 17 61 8 6 15 25 16 41 0 17 4 29 7 27 3 -2 16 18 27 45 19 42 22 65
22 194 0 138 -1 149 -26 194 -23 42 -25 58 -23 133 1 47 3 104 3 127 1 22 4
39 7 37 4 -2 10 40 14 94 4 53 10 106 13 117 4 11 8 228 9 483 l3 463 -23 -3
c-13 -1 -29 3 -37 10 -8 7 -25 21 -38 31 -21 18 -22 58 -1 45 15 -9 10 16 -5
32 -19 19 -32 18 -16 -1 17 -20 5 -32 -15 -15 -19 16 -20 6 -1 -13 9 -8 11
-19 6 -28 -7 -10 -11 -7 -19 14 -6 15 -13 27 -16 27 -4 0 -3 -4 0 -10 3 -5 -1
-10 -10 -10 -9 0 -13 5 -10 10 3 6 2 10 -4 10 -15 0 -21 -14 -11 -30 5 -9 5
-19 -2 -27 -7 -9 -6 -14 6 -19 9 -3 13 -10 10 -15 -3 -5 0 -9 5 -9 6 0 10 13
9 30 -2 16 1 28 7 27 5 -1 9 -13 7 -27 -1 -15 1 -19 5 -10 11 27 26 28 48 4
12 -13 24 -21 27 -18 3 2 8 -2 11 -9 4 -11 0 -13 -14 -10 -13 4 -22 -2 -28
-18 -7 -17 -10 -19 -10 -7 -1 9 3 20 9 23 16 10 12 25 -5 19 -10 -4 -15 0 -15
12 0 16 -2 16 -9 4 -6 -8 -8 -17 -6 -20 6 -9 -48 -5 -63 4 -7 4 -10 11 -8 15
3 4 -8 18 -24 31 -29 24 -30 50 -1 50 14 0 14 -2 1 -10 -11 -7 -12 -12 -3 -21
8 -8 14 -6 23 10 6 12 8 27 4 33 -4 6 -3 8 4 4 6 -3 14 -1 18 5 5 8 3 9 -6 4
-10 -6 -12 -4 -7 8 5 14 3 15 -13 5 -10 -7 -17 -15 -14 -19 2 -4 -5 -9 -16
-12 -28 -7 -25 2 11 34 27 24 29 28 11 26 -11 0 -19 -4 -17 -8 3 -3 -4 -14
-15 -24 -22 -20 -26 -14 -10 16 7 13 7 19 0 19 -5 0 -10 -6 -10 -12 0 -7 -5
-20 -10 -28 -9 -13 -11 -13 -19 0 -6 8 -13 11 -17 8 -3 -4 1 -15 11 -24 13
-13 19 -14 25 -5 5 10 9 8 14 -4 7 -19 -17 -59 -29 -47 -5 4 -5 1 -1 -5 10
-18 24 -16 29 5 4 16 5 16 6 0 0 -10 7 -18 15 -18 8 0 18 -5 22 -12 4 -6 3 -8
-4 -4 -6 3 -13 2 -17 -3 -3 -5 3 -15 12 -21 16 -10 16 -11 -2 -5 -11 4 -26 9
-33 12 -8 4 -10 -1 -5 -13 5 -14 1 -13 -14 5 -12 14 -25 21 -32 17 -9 -6 -9
-11 0 -22 9 -11 8 -14 -5 -14 -11 0 -14 -5 -10 -12 4 -6 3 -8 -4 -5 -11 8 -11
25 1 44 9 15 -12 22 -39 12 -14 -5 -21 -3 -21 6 0 9 10 12 27 10 18 -2 32 3
41 16 7 10 20 19 28 19 8 0 12 2 9 5 -8 9 -59 -6 -53 -15 3 -4 -2 -11 -11 -14
-22 -9 -26 -8 -18 5 5 8 1 8 -14 0 -30 -16 -40 -13 -18 4 17 13 18 15 3 15 -9
0 -17 -5 -17 -11 0 -5 -4 -7 -10 -4 -6 3 -10 1 -10 -5 0 -6 -5 -8 -10 -5 -7 4
-8 -3 -4 -20 6 -25 5 -26 -14 -16 -14 7 -23 8 -27 1 -3 -5 -12 -10 -18 -9 -9
0 -9 2 0 5 7 3 9 12 6 20 -9 23 -21 16 -28 -16 -4 -16 -11 -30 -16 -30 -6 0
-8 4 -4 9 3 5 -2 17 -11 25 -13 14 -13 16 -1 16 9 0 18 -6 20 -12 3 -7 6 -8 6
-3 2 26 -16 36 -42 24 -15 -7 -27 -16 -27 -21 0 -5 5 -6 12 -2 7 4 8 3 4 -4
-4 -7 -13 -12 -21 -12 -7 0 -15 -3 -18 -7 -2 -5 -2 -2 -1 5 2 6 -2 12 -7 12
-7 0 -9 -11 -7 -24 3 -14 1 -31 -3 -38 -7 -11 -9 -11 -9 0 0 9 -7 11 -21 7
-19 -6 -20 -5 -8 8 8 8 17 13 22 10 4 -2 7 3 7 11 0 11 -10 14 -42 11 -24 -2
-37 -1 -30 2 10 4 7 9 -8 20 -23 16 -41 10 -23 -8 6 -6 9 -18 5 -27 -4 -11 -1
-14 11 -9 9 3 19 1 23 -5 5 -8 -3 -9 -24 -5 -20 4 -32 2 -32 -4 0 -6 -5 -7
-10 -4 -6 4 -1 14 11 24 15 12 19 20 11 25 -7 4 -12 2 -12 -4 0 -7 -8 -9 -19
-5 -11 3 -23 1 -26 -6 -6 -8 -10 -7 -16 2 -8 12 -11 11 -20 -1 -9 -13 -10 -13
-6 0 2 8 18 16 35 18 18 2 30 8 27 13 -4 5 -1 9 5 9 7 0 10 -7 6 -17 -4 -10 4
-5 17 11 21 25 25 27 33 14 8 -15 64 -37 64 -25 0 3 -20 16 -45 28 -32 16 -42
25 -33 31 8 6 5 7 -9 3 -17 -5 -23 -2 -23 9 0 9 -5 16 -11 16 -5 0 -7 5 -4 10
3 6 2 10 -4 10 -5 0 -13 -5 -16 -10 -4 -6 -12 -7 -18 -4 -7 4 -8 3 -4 -2 5 -5
13 -10 18 -10 5 -1 14 -2 19 -3 6 0 10 -8 10 -16 0 -8 7 -15 15 -15 8 0 15 -4
15 -10 0 -14 -37 -12 -43 3 -3 6 -6 3 -6 -7 -1 -11 -4 -17 -7 -13 -4 3 -13 -1
-21 -9 -12 -12 -18 -12 -31 -2 -13 11 -15 10 -9 -4 4 -12 -2 -19 -24 -27 -16
-5 -29 -6 -29 -1 0 5 -8 11 -17 14 -10 2 -1 2 20 -1 24 -3 37 -1 37 6 0 8 -17
11 -50 10 -35 -2 -50 -7 -50 -16 0 -8 -4 -12 -10 -8 -5 3 -7 13 -4 23 5 14 4
15 -5 2 -5 -8 -13 -11 -17 -8 -4 4 -15 3 -25 -2 -14 -8 -19 -6 -25 12 -6 20
-7 20 -16 3 -7 -12 -7 -20 2 -25 8 -5 7 -9 -5 -14 -23 -8 -27 -8 -20 4 15 25
13 89 -3 102 -15 11 -15 11 -4 -3 16 -21 5 -54 -13 -39 -8 7 -27 6 -59 -4 -42
-13 -47 -13 -42 0 3 9 1 12 -4 9 -10 -6 -14 7 -11 33 1 6 -3 12 -8 12 -5 0 -7
-12 -5 -27 4 -21 2 -25 -6 -17 -18 18 -50 5 -51 -20 0 -11 -5 -30 -10 -41 -7
-15 -8 -11 -5 18 4 32 2 38 -10 33 -9 -3 -19 -6 -22 -6 -4 0 0 -5 8 -10 11 -7
12 -12 3 -21 -9 -9 -13 -6 -19 15 -7 29 -19 34 -28 11 -3 -8 1 -18 8 -22 8 -5
11 -15 6 -28 -7 -19 -7 -19 -19 4 -7 12 -10 29 -7 36 3 10 0 12 -12 9 -13 -5
-14 -4 -4 4 8 5 12 13 10 18 -4 12 33 12 50 0 7 -5 12 -4 12 3 0 6 -4 11 -10
11 -5 0 -7 6 -4 14 3 8 1 17 -5 21 -7 3 -8 0 -5 -9 3 -9 1 -16 -5 -16 -6 0
-11 5 -11 10 0 6 -9 1 -20 -10 -12 -12 -25 -18 -29 -15 -5 2 -11 -2 -15 -10
-3 -8 -1 -15 4 -15 6 0 10 -8 10 -17 0 -13 -3 -14 -12 -5 -7 7 -17 12 -23 12
-5 0 -3 -5 5 -10 8 -5 11 -10 5 -10 -5 0 -23 11 -39 25 -32 27 -45 33 -27 11
9 -11 8 -15 -6 -20 -15 -6 -15 -8 -3 -16 11 -7 12 -10 2 -10 -9 0 -11 -7 -7
-22 5 -20 4 -21 -5 -5 -6 9 -9 21 -5 26 3 5 1 12 -5 16 -6 4 -4 17 6 36 8 17
13 33 10 37 -3 3 -6 0 -6 -7 0 -9 -5 -9 -22 1 -13 7 -29 11 -37 9 -7 -1 -11 2
-7 7 3 5 -1 9 -8 9 -8 0 -12 -6 -9 -14 3 -7 11 -13 19 -13 8 0 14 -4 14 -10 0
-25 -36 -3 -49 30 -9 23 -10 22 -8 -10 2 -30 6 -35 30 -38 31 -4 35 -16 10
-32 -13 -8 -14 -13 -6 -16 7 -3 13 -10 13 -16 0 -19 -28 12 -34 37 -5 18 -13
25 -29 24 -17 -1 -18 -2 -4 -6 20 -5 21 -12 3 -35 -15 -20 -31 -25 -20 -6 5 7
2 9 -9 5 -11 -4 -14 -2 -10 9 3 7 1 14 -5 14 -5 0 -12 -9 -15 -20 -3 -11 -11
-20 -19 -19 -10 0 -10 2 -1 6 17 6 16 40 -1 46 -19 7 -26 -1 -26 -30 0 -12 -4
-23 -9 -23 -17 0 -8 51 10 61 19 10 43 1 81 -30 11 -9 18 -10 18 -3 0 6 -4 14
-10 17 -15 9 -12 25 5 25 8 0 15 8 15 18 0 15 -2 15 -10 2 -9 -13 -12 -13 -24
3 -11 14 -16 15 -22 6 -4 -7 -2 -15 4 -17 7 -2 12 -8 12 -13 0 -6 -8 -5 -20 1
-11 6 -18 15 -15 21 4 5 0 16 -9 24 -20 20 -29 19 -18 -2 7 -11 6 -21 -3 -30
-17 -16 -32 -17 -37 -1 -3 7 -7 5 -11 -6 -4 -10 -3 -15 3 -11 13 8 13 3 -5
-36 -8 -21 -14 -27 -15 -16 0 11 -4 15 -12 11 -7 -4 -8 -3 -4 4 4 7 1 12 -9
12 -9 0 -14 -4 -11 -8 5 -9 -41 -8 -51 1 -6 7 12 11 31 8 5 -1 4 4 -2 12 -7 8
-8 17 -4 22 4 4 0 5 -8 3 -8 -3 -14 -10 -13 -16 2 -6 -3 -9 -11 -6 -8 3 -12
15 -10 27 3 13 -3 8 -13 -13 -10 -19 -21 -37 -26 -38 -4 -2 -5 -8 -1 -13 3 -5
3 -9 0 -9 -3 0 -13 14 -22 31 -8 17 -11 28 -5 25 16 -10 14 7 -4 30 -20 27
-18 41 8 49 20 6 20 8 3 12 -10 3 -21 1 -25 -4 -3 -5 -14 -9 -23 -8 -10 0 -18
-3 -18 -7 0 -39 2 -42 12 -18 10 23 11 23 16 5 2 -11 9 -23 16 -27 6 -5 7 -8
1 -9 -59 -5 -65 -4 -65 14 0 10 -4 16 -9 13 -5 -4 -12 0 -15 6 -3 7 -4 4 -3
-7 3 -30 37 -56 61 -49 19 6 19 5 4 -10 -21 -21 -23 -20 -49 7 l-22 22 6 -23
c5 -20 3 -21 -10 -10 -9 7 -23 13 -32 13 -18 0 -24 46 -7 57 7 5 7 11 -1 19
-14 14 -46 22 -38 9 3 -4 -2 -10 -10 -14 -8 -3 -17 -1 -20 4 -4 7 -13 6 -26 0
-13 -8 -19 -7 -19 0 0 6 -7 18 -15 26 -13 14 -15 14 -15 -1 0 -10 -6 -15 -13
-12 -8 3 -13 -4 -12 -22 0 -19 -5 -26 -20 -26 -11 0 -26 -5 -33 -12 -8 -7 -17
-11 -22 -8 -5 3 -11 -3 -13 -12 -4 -17 -5 -17 -6 0 -1 12 -10 17 -33 17 -25 0
-29 3 -20 12 7 7 12 17 12 22 0 6 -7 1 -15 -11 -11 -15 -22 -20 -38 -17 -12 3
-31 7 -42 8 -11 2 -21 10 -23 19 -2 10 -7 15 -12 12 -5 -3 -7 -12 -3 -20 3 -9
-1 -15 -11 -15 -11 0 -15 8 -12 28 2 15 1 21 -1 14 -4 -10 -8 -10 -19 -1 -8 6
-17 9 -21 5 -3 -3 0 -6 8 -7 9 0 6 -4 -6 -10 -19 -9 -18 -9 3 -5 13 2 22 -1
22 -9 0 -8 -9 -11 -25 -7 -19 3 -25 11 -26 31 l-1 26 -7 -25 -7 -25 -6 27 c-3
16 0 29 6 32 6 2 3 5 -7 5 -12 1 -17 -5 -16 -16 1 -10 -2 -28 -7 -41 l-10 -23
-14 25 c-17 33 -29 33 -23 2 3 -13 0 -27 -6 -30 -6 -4 -9 -2 -6 6 3 7 0 20 -5
28 -8 13 -11 13 -19 1 -7 -11 -10 -10 -14 5 -4 16 -5 17 -6 2 -1 -20 -16 -24
-27 -6 -5 7 -10 4 -15 -10 -5 -12 -14 -22 -21 -22 -9 0 -9 3 2 10 13 8 12 10
-2 10 -10 0 -18 -6 -18 -12 0 -10 -2 -10 -8 -1 -7 11 -51 22 -109 26 -22 2
-33 -2 -33 -11 0 -7 5 -10 10 -7 6 3 10 1 10 -4 0 -15 -11 -13 -34 4 -12 9
-43 15 -75 16 -45 1 -51 3 -31 10 23 8 22 8 -8 5 -22 -2 -31 2 -30 10 2 7 -1
14 -6 16 -5 2 -10 -7 -11 -19 -2 -27 -15 -44 -15 -20 0 12 -6 14 -27 8 -16 -4
-34 -6 -42 -3 -7 2 -17 -2 -22 -9 -7 -11 -9 -11 -9 2 0 12 -7 15 -25 11 -21
-4 -24 -1 -18 14 4 11 8 13 11 6 2 -7 8 -12 14 -12 24 0 -1 25 -28 27 -44 4
-59 -4 -44 -22 7 -9 10 -19 6 -22 -4 -4 -10 -3 -14 2 -8 12 -61 14 -63 3 -1
-4 -2 -12 -3 -17 0 -5 -4 -12 -9 -15 -4 -3 -5 -3 -2 0 8 11 -16 45 -27 38 -7
-4 -6 -9 3 -15 24 -15 -35 -10 -74 6 -23 9 -38 11 -42 5 -3 -6 -1 -10 6 -10 7
0 4 -7 -7 -15 -10 -8 -23 -14 -29 -15 -5 0 -4 4 3 9 10 6 10 10 -2 20 -8 7
-14 18 -12 24 1 7 1 9 -1 5 -3 -5 -12 -8 -21 -8 -15 0 -15 -2 -2 -10 11 -7 9
-9 -10 -8 -44 1 -101 19 -95 28 4 6 2 10 -4 10 -6 0 -9 -13 -7 -30 2 -21 -1
-30 -11 -30 -8 0 -11 5 -7 11 4 8 0 9 -15 4 -13 -4 -21 -2 -21 6 0 7 -9 2 -20
-11 -11 -13 -20 -18 -20 -12 0 8 -18 12 -46 12 -34 0 -45 -3 -41 -13 3 -8 -1
-14 -9 -14 -8 0 -14 5 -14 10 0 5 -9 7 -20 4 -11 -3 -18 -1 -15 3 3 5 1 11 -4
14 -5 3 -12 -1 -15 -10 -4 -10 -13 -13 -26 -9 -15 5 -20 2 -21 -12 0 -16 -1
-16 -7 -2 -9 22 -52 7 -53 -18 0 -11 -3 -13 -6 -5 -3 7 1 20 9 29 12 15 10 16
-12 10 -14 -4 -29 -7 -34 -7 -5 0 -3 -6 3 -13 8 -10 7 -14 -4 -14 -7 0 -14 3
-13 6 2 25 -3 30 -26 21 -18 -6 -28 -5 -36 5 -7 8 -15 14 -18 13 -20 -2 -32 3
-27 12 3 6 1 10 -4 10 -6 0 -11 -7 -11 -15 0 -8 -7 -15 -15 -15 -9 0 -15 -10
-16 -27 -1 -28 -1 -28 -16 7 l-15 34 -18 -24 c-17 -22 -18 -22 -17 -5 2 24
-34 28 -40 5 -3 -9 -1 -11 4 -5 4 6 15 11 23 13 11 2 11 -1 -3 -11 -9 -8 -29
-12 -43 -9 -20 4 -25 2 -19 -8 6 -9 4 -11 -5 -5 -7 4 -16 2 -22 -6 -8 -11 -9
-10 -4 4 3 10 0 17 -8 17 -27 0 -46 -12 -46 -29 0 -14 -2 -14 -11 -1 -8 11
-12 12 -16 2 -2 -6 -9 -10 -14 -7 -13 9 14 33 30 27 10 -4 12 -1 6 8 -5 9 -4
11 3 6 22 -13 37 6 17 21 -13 8 -14 13 -5 13 7 0 11 2 8 5 -2 3 -19 0 -37 -6
-24 -9 -29 -14 -21 -24 14 -17 -3 -29 -29 -20 -11 3 -22 1 -26 -4 -3 -6 0 -8
8 -5 8 3 17 1 20 -3 3 -5 -6 -8 -21 -7 -41 2 -44 3 -37 14 3 5 0 7 -8 4 -7 -2
-24 -24 -36 -47 -12 -23 -21 -33 -19 -22 2 11 -3 25 -12 32 -13 11 -11 12 13
13 15 0 27 5 27 11 0 5 -4 8 -9 5 -5 -3 -11 4 -14 15 -3 12 -10 18 -16 14 -6
-3 -11 0 -11 7 0 10 -2 10 -9 -1 -5 -7 -7 -21 -4 -30 3 -11 -1 -18 -11 -18 -9
0 -16 4 -16 8 0 5 -7 6 -16 2 -8 -3 -13 -12 -10 -20 4 -8 1 -11 -5 -7 -6 3 -9
21 -7 39 3 24 -1 36 -14 44 -10 6 -18 17 -18 25 0 9 -7 12 -20 9 -11 -3 -20
-1 -20 5 0 15 -30 8 -41 -9 -14 -23 -10 -36 6 -15 11 15 19 16 42 8 18 -7 22
-11 10 -11 -10 -1 -16 -5 -13 -10 3 -5 16 -7 28 -3 16 4 19 2 13 -8 -5 -9 -4
-11 3 -6 8 5 12 -5 12 -31 0 -21 -4 -33 -8 -27 -4 6 -15 14 -26 17 -14 6 -17
3 -12 -8 3 -9 0 -15 -9 -15 -9 0 -12 -6 -9 -15 5 -11 2 -13 -9 -9 -16 6 -12
34 4 34 5 0 9 14 9 30 0 17 -4 30 -9 30 -4 0 -6 -11 -4 -24 4 -18 0 -26 -19
-32 -12 -4 -26 -7 -30 -6 -5 1 -8 -2 -8 -8 0 -5 4 -10 9 -10 5 0 8 -8 6 -17
-2 -10 -4 -22 -4 -27 -2 -19 -13 3 -18 34 -3 21 0 36 9 42 10 7 8 8 -6 6 -12
-2 -24 -17 -31 -38 l-13 -35 1 38 c1 20 4 37 8 37 4 0 9 6 12 14 4 9 -3 12
-26 11 -18 -2 -34 -4 -37 -5 -3 -1 -8 -2 -12 -1 -5 0 -8 -4 -8 -10 0 -10 15
-7 60 9 13 5 13 3 2 -11 -8 -9 -10 -22 -6 -29 5 -10 4 -10 -6 -1 -11 10 -16 9
-27 -5 -13 -15 -14 -15 -10 -1 4 11 0 16 -11 15 -13 -1 -17 7 -15 29 0 17 -1
24 -4 18 -8 -20 -33 -16 -26 5 4 11 0 10 -11 -5 -19 -26 -41 -31 -33 -8 4 8 2
17 -3 20 -6 4 -10 -5 -10 -19 0 -18 6 -26 18 -27 23 -2 24 -2 47 7 18 7 18 6
6 -9 -7 -9 -17 -14 -22 -12 -4 3 -17 -3 -29 -15 -15 -15 -20 -17 -20 -5 0 8 6
15 13 15 8 0 7 3 -3 9 -20 13 -29 5 -24 -22 l5 -22 -10 22 c-7 14 -16 21 -25
17 -8 -3 -21 -2 -28 3 -17 10 -58 11 -52 1 3 -4 -2 -8 -10 -8 -9 0 -16 -4 -16
-10 0 -5 8 -7 18 -3 18 6 17 5 -8 -14 -13 -10 -16 -8 -18 13 -1 13 3 24 8 24
6 0 10 5 10 11 0 6 -6 9 -12 6 -17 -6 -50 12 -43 23 3 6 15 6 30 0 19 -7 23
-6 18 5 -3 8 -9 13 -13 10 -5 -3 -11 -1 -15 5 -4 6 -11 8 -16 5 -5 -4 -9 -1
-9 4 0 6 -7 11 -16 11 -10 0 -14 6 -10 15 6 17 0 20 -9 5z m2114 -26 c16 -37
9 -39 -11 -3 -9 16 -14 29 -9 29 4 0 13 -12 20 -26z m1157 -24 c18 0 23 4 18
13 -6 9 -5 9 8 0 8 -7 18 -10 21 -6 4 3 7 1 7 -6 0 -7 5 -9 10 -6 6 4 8 10 5
15 -3 5 -1 12 5 15 7 4 9 -3 6 -22 -2 -15 -5 -34 -5 -41 -1 -12 -59 -14 -66
-1 -2 3 -18 5 -35 4 -16 -1 -30 3 -30 9 0 6 -5 5 -12 -2 -7 -7 -19 -12 -27
-11 -10 0 -7 4 7 9 12 5 27 20 32 32 6 17 9 18 9 6 1 -9 6 -20 11 -23 7 -4 9
2 7 17 -2 12 -2 17 0 11 3 -7 16 -13 29 -13z m-1542 -5 c-4 -8 -8 -15 -10 -15
-2 0 -4 7 -4 15 0 8 4 15 10 15 5 0 7 -7 4 -15z m584 -10 c-3 -3 -9 2 -12 12
-6 14 -5 15 5 6 7 -7 10 -15 7 -18z m-1429 6 c9 -6 5 -8 -13 -8 -14 0 -26 3
-26 8 0 11 21 11 39 0z m1529 2 c-10 -2 -26 -2 -35 0 -10 3 -2 5 17 5 19 0 27
-2 18 -5z m112 -3 c0 -5 -8 -10 -17 -10 -15 0 -16 2 -3 10 19 12 20 12 20 0z
m-1327 -22 c21 -22 10 -23 -17 -3 -24 18 -36 19 -32 3 1 -7 1 -10 -1 -5 -3 4
-12 7 -21 7 -15 0 -15 2 -2 10 22 14 52 8 73 -12z m-513 -4 c0 -8 -5 -12 -10
-9 -6 4 -8 11 -5 16 9 14 15 11 15 -7z m664 -2 c3 -5 -1 -9 -9 -9 -8 0 -12 4
-9 9 3 4 7 8 9 8 2 0 6 -4 9 -8z m-1287 -21 c0 -11 -5 -17 -9 -15 -11 7 -10
34 1 34 6 0 9 -9 8 -19z m3210 -3 c-3 -8 -6 -5 -6 6 -1 11 2 17 5 13 3 -3 4
-12 1 -19z m695 4 c-7 -2 -12 -18 -12 -35 0 -23 -3 -28 -9 -18 -5 8 -7 20 -5
28 2 7 6 20 9 29 3 9 10 12 17 8 9 -6 9 -9 0 -12z m-2015 -24 c-3 -7 -5 -2 -5
12 0 14 2 19 5 13 2 -7 2 -19 0 -25z m-1764 9 c15 3 18 2 9 -4 -7 -6 -10 -17
-6 -29 6 -16 4 -16 -13 4 -11 12 -27 22 -34 22 -11 0 -11 2 1 10 8 5 16 5 18
1 2 -5 13 -7 25 -4z m1932 -18 c-7 -11 -45 -18 -45 -9 0 5 5 12 10 15 6 4 8
11 4 16 -3 6 3 5 14 -2 12 -7 19 -16 17 -20z m227 -4 c4 -6 8 -1 8 9 0 11 2
17 5 14 4 -3 3 -17 0 -31 -8 -30 -51 -44 -51 -16 0 14 3 15 13 7 24 -19 24 -2
1 28 -19 25 -20 27 -3 14 11 -8 23 -19 27 -25z m1931 26 c11 6 17 7 14 2 -4
-6 4 -16 18 -23 15 -8 22 -19 20 -31 -2 -11 1 -19 7 -19 6 0 9 -2 6 -5 -3 -3
-20 1 -39 9 -32 14 -32 15 -9 16 16 1 19 4 10 7 -8 3 -18 11 -22 17 -5 8 -8 7
-8 -1 0 -7 -8 -13 -19 -13 -13 0 -18 7 -18 26 0 17 3 22 10 15 7 -7 16 -7 30
0z m121 -3 c-5 -8 0 -9 14 -6 27 7 28 -3 4 -32 -14 -18 -19 -19 -19 -7 0 9 4
14 9 11 4 -3 8 0 8 7 0 6 -8 9 -20 6 -11 -3 -20 -4 -20 -2 0 13 14 35 22 35 5
0 6 -5 2 -12z m-4114 -20 c0 -18 -2 -20 -9 -8 -6 8 -7 18 -5 22 9 14 14 9 14
-14z m40 12 c0 -5 -5 -10 -11 -10 -5 0 -7 5 -4 10 3 6 8 10 11 10 2 0 4 -4 4
-10z m305 0 c3 -5 1 -10 -4 -10 -6 0 -11 5 -11 10 0 6 2 10 4 10 3 0 8 -4 11
-10z m275 6 c0 -3 -4 -8 -10 -11 -5 -3 -10 -1 -10 4 0 6 5 11 10 11 6 0 10 -2
10 -4z m507 -2 c-3 -3 -12 -4 -19 -1 -8 3 -5 6 6 6 11 1 17 -2 13 -5z m372
-37 c0 -15 -2 -17 -6 -7 -3 8 -12 19 -19 23 -23 13 -17 29 6 17 11 -6 20 -20
19 -33z m201 39 c0 -3 -4 -8 -10 -11 -5 -3 -10 -1 -10 4 0 6 5 11 10 11 6 0
10 -2 10 -4z m85 -6 c-3 -5 -15 -10 -26 -10 -11 0 -18 -4 -15 -9 3 -5 -1 -14
-9 -21 -13 -11 -14 -10 -9 5 6 15 3 17 -15 12 -18 -4 -20 -3 -10 9 6 7 15 12
18 9 4 -2 21 0 37 5 16 4 30 9 32 9 2 1 0 -3 -3 -9z m211 -14 c2 -14 0 -15
-13 -5 -10 9 -17 9 -21 2 -4 -5 -18 -15 -32 -22 -24 -12 -24 -11 -5 4 19 16
19 16 -8 12 -16 -2 -33 -10 -38 -18 -7 -11 -9 -8 -9 11 l-1 25 -15 -25 c-8
-14 -13 -17 -10 -7 3 10 6 23 6 28 0 6 8 8 18 6 9 -3 37 -2 62 3 56 9 63 8 66
-14z m229 12 c36 2 60 -11 50 -28 -6 -10 -10 -9 -16 3 -11 18 -37 16 -50 -4
-7 -12 -9 -12 -9 1 0 13 -1 13 -10 0 -9 -13 -10 -13 -10 0 0 13 -2 13 -11 0
-9 -12 -10 -12 -5 3 3 10 6 23 6 28 0 6 5 7 12 3 7 -4 26 -7 43 -6z m1091 -5
c7 -10 18 -18 25 -18 7 0 14 -5 16 -11 2 -7 -8 -9 -26 -6 -22 3 -28 8 -23 21
5 14 4 14 -11 2 -18 -14 -20 -12 -11 13 8 20 14 20 30 -1z m765 -2 c-8 -14 -7
-20 4 -25 21 -8 19 -26 -2 -25 -10 0 -13 3 -6 6 8 3 4 12 -13 28 -24 23 -21
32 14 34 9 1 10 -4 3 -18z m774 9 c3 -5 -1 -10 -9 -10 -9 0 -16 5 -16 10 0 6
4 10 9 10 6 0 13 -4 16 -10z m-5087 -18 c25 -25 33 -59 17 -66 -8 -3 -11 2 -8
15 6 22 -13 49 -33 49 -8 0 -14 -8 -14 -17 0 -15 -2 -15 -9 -4 -6 9 -5 19 2
27 16 18 24 17 45 -4z m309 0 c-10 -10 -17 -25 -18 -33 0 -11 -2 -11 -6 -1 -5
12 23 52 35 52 3 0 -2 -8 -11 -18z m223 9 c0 -6 -5 -13 -12 -17 -6 -4 -8 -3
-4 4 3 6 -2 13 -11 15 -14 4 -13 5 5 6 12 0 22 -3 22 -8z m150 -1 c0 -5 -5
-10 -11 -10 -5 0 -7 5 -4 10 3 6 8 10 11 10 2 0 4 -4 4 -10z m920 0 c0 -13
-30 -13 -50 0 -11 7 -7 10 18 10 17 0 32 -4 32 -10z m65 0 c22 -8 24 -13 15
-30 -6 -11 -15 -18 -21 -15 -5 4 -9 -3 -9 -14 0 -11 -4 -22 -8 -25 -5 -3 -6 8
-4 25 2 16 10 29 18 29 7 0 15 4 19 9 3 6 -4 8 -15 6 -11 -2 -18 0 -15 5 3 4
-1 11 -7 13 -24 10 1 7 27 -3z m139 -2 c-7 -12 -44 -10 -44 2 0 5 11 9 24 8
14 -1 22 -6 20 -10z m66 2 c-13 -8 -12 -10 4 -10 11 0 17 -3 13 -6 -3 -3 -15
-3 -26 1 -24 7 -19 25 7 25 15 0 15 -2 2 -10z m881 -20 c6 0 8 4 5 8 -2 4 6 8
19 8 13 0 21 -4 19 -8 -3 -5 -10 -5 -16 -2 -6 4 -8 -1 -3 -16 7 -21 6 -21 -19
-5 -14 10 -25 25 -25 34 1 14 2 13 6 -1 2 -10 9 -18 14 -18z m-2669 8 c-6 -6
-19 -13 -27 -14 -13 -2 -14 1 -4 12 6 8 19 14 27 14 12 0 13 -3 4 -12z m285
-10 c-3 -8 -6 -5 -6 6 -1 11 2 17 5 13 3 -3 4 -12 1 -19z m188 12 c3 -5 1 -10
-4 -10 -6 0 -11 5 -11 10 0 6 2 10 4 10 3 0 8 -4 11 -10z m812 -37 c-3 -10 -5
-2 -5 17 0 19 2 27 5 18 2 -10 2 -26 0 -35z m973 39 c0 -4 -6 -14 -12 -21 -8
-8 -8 -11 -2 -8 7 4 17 0 24 -8 11 -13 9 -14 -11 -7 -22 9 -31 26 -22 45 5 10
23 9 23 -1z m280 -2 c0 -5 -5 -10 -11 -10 -5 0 -7 5 -4 10 3 6 8 10 11 10 2 0
4 -4 4 -10z m100 -11 c7 -11 9 -23 7 -26 -3 -2 -8 5 -12 16 -6 21 -6 21 -28 1
-29 -28 -41 -25 -14 4 28 30 34 31 47 5z m-2530 7 c0 -3 -4 -8 -10 -11 -5 -3
-10 -1 -10 4 0 6 5 11 10 11 6 0 10 -2 10 -4z m1210 0 c0 -3 -4 -8 -10 -11 -5
-3 -10 -1 -10 4 0 6 5 11 10 11 6 0 10 -2 10 -4z m47 -21 c-9 -9 -14 -10 -19
-1 -13 19 -9 24 11 19 16 -4 17 -8 8 -18z m125 12 c27 -1 30 -9 5 -13 -7 -1
-19 -4 -27 -6 -8 -3 -11 -3 -6 0 5 3 -4 11 -20 18 -25 12 -25 13 -4 8 14 -3
37 -7 52 -7z m1008 2 c0 -5 -4 -7 -10 -4 -5 3 -10 1 -10 -6 0 -7 -3 -10 -6 -6
-8 7 4 27 17 27 5 0 9 -5 9 -11z m80 1 c0 -5 -8 -10 -17 -10 -15 0 -16 2 -3
10 19 12 20 12 20 0z m767 4 c-3 -3 -12 -4 -19 -1 -8 3 -5 6 6 6 11 1 17 -2
13 -5z m1042 -30 c4 3 5 -9 2 -27 -5 -32 -6 -32 -9 -5 -3 23 -7 26 -20 19 -10
-5 -26 -5 -37 0 -18 9 -18 9 3 5 15 -3 22 1 22 12 0 15 2 15 10 2 8 -12 10
-10 11 10 2 24 2 24 6 2 2 -12 8 -20 12 -18z m665 28 c3 -5 -1 -9 -9 -9 -8 0
-12 4 -9 9 3 4 7 8 9 8 2 0 6 -4 9 -8z m-5299 -12 c-3 -5 -12 -10 -18 -10 -7
0 -6 4 3 10 19 12 23 12 15 0z m285 -7 c0 -10 -4 -14 -8 -8 -4 6 -11 13 -16
18 -5 4 -2 7 7 7 10 0 17 -8 17 -17z m85 -5 c-1 -13 -5 -22 -8 -20 -4 1 -14 2
-23 2 -8 0 -12 5 -9 10 4 6 10 8 15 5 4 -3 10 2 14 10 8 22 13 18 11 -7z m58
2 c-3 -12 -8 -19 -11 -16 -5 6 5 36 12 36 2 0 2 -9 -1 -20z m1552 9 c11 -17 0
-20 -21 -4 -17 13 -17 14 -2 15 9 0 20 -5 23 -11z m1132 5 c-3 -3 -12 -4 -19
-1 -8 3 -5 6 6 6 11 1 17 -2 13 -5z m-3090 -26 c-3 -8 -6 -5 -6 6 -1 11 2 17
5 13 3 -3 4 -12 1 -19z m2603 12 c0 -5 -5 -10 -11 -10 -5 0 -7 5 -4 10 3 6 8
10 11 10 2 0 4 -4 4 -10z m157 4 c-3 -3 -12 -4 -19 -1 -8 3 -5 6 6 6 11 1 17
-2 13 -5z m488 -14 c57 -22 54 -25 -11 -9 -24 6 -44 15 -44 20 0 12 -3 12 55
-11z m872 14 c-3 -3 -12 -4 -19 -1 -8 3 -5 6 6 6 11 1 17 -2 13 -5z m939 -6
c4 -7 3 -8 -4 -4 -7 4 -12 2 -12 -5 0 -7 -3 -10 -6 -6 -6 5 3 27 11 27 2 0 7
-5 11 -12z m82 5 c-10 -2 -18 -9 -18 -14 0 -6 5 -7 10 -4 6 3 10 1 10 -4 0 -6
-7 -11 -15 -11 -8 0 -15 9 -15 20 0 14 6 20 23 19 16 -1 18 -2 5 -6z m496 -2
c3 -5 -5 -11 -19 -13 -20 -4 -23 -3 -14 8 13 16 25 18 33 5z m-5417 -23 c-3
-8 -6 -5 -6 6 -1 11 2 17 5 13 3 -3 4 -12 1 -19z m728 12 c3 -6 -1 -7 -9 -4
-18 7 -21 14 -7 14 6 0 13 -4 16 -10z m475 6 c0 -11 -19 -15 -25 -6 -3 5 1 10
9 10 9 0 16 -2 16 -4z m1140 -12 c0 -2 -9 -4 -20 -4 -11 0 -20 4 -20 9 0 5 9
7 20 4 11 -3 20 -7 20 -9z m290 12 c0 -3 -4 -8 -10 -11 -5 -3 -10 -1 -10 4 0
6 5 11 10 11 6 0 10 -2 10 -4z m825 -6 c3 -6 -1 -7 -9 -4 -18 7 -21 14 -7 14
6 0 13 -4 16 -10z m186 -13 c-10 -9 -11 -8 -5 6 3 10 9 15 12 12 3 -3 0 -11
-7 -18z m784 -7 c-9 -16 -18 -30 -21 -30 -2 0 2 14 11 30 9 17 18 30 21 30 2
0 -2 -13 -11 -30z m102 -2 c-3 -7 -5 -2 -5 12 0 14 2 19 5 13 2 -7 2 -19 0
-25z m614 15 c12 -16 12 -17 -2 -6 -9 7 -20 9 -24 5 -5 -4 -5 -1 -1 6 9 16 11
15 27 -5z m-5257 -9 c3 -8 2 -12 -4 -9 -6 3 -10 10 -10 16 0 14 7 11 14 -7z
m1630 8 c3 -5 -1 -9 -9 -9 -8 0 -12 4 -9 9 3 4 7 8 9 8 2 0 6 -4 9 -8z m993 2
c-3 -3 -12 -4 -19 -1 -8 3 -5 6 6 6 11 1 17 -2 13 -5z m1497 -2 c3 -5 -1 -9
-9 -9 -8 0 -12 4 -9 9 3 4 7 8 9 8 2 0 6 -4 9 -8z m286 -2 c8 -5 11 -10 5 -10
-5 0 -17 5 -25 10 -8 5 -10 10 -5 10 6 0 17 -5 25 -10z m187 4 c-3 -3 -12 -4
-19 -1 -8 3 -5 6 6 6 11 1 17 -2 13 -5z m76 -14 c-3 -11 -7 -20 -9 -20 -2 0
-4 9 -4 20 0 11 4 20 9 20 5 0 7 -9 4 -20z m507 10 c0 -5 -4 -10 -10 -10 -5 0
-10 5 -10 10 0 6 5 10 10 10 6 0 10 -4 10 -10z m224 4 c20 -8 20 -20 0 -28 -9
-4 -13 -2 -8 5 4 6 0 15 -7 20 -16 10 -8 12 15 3z m72 -10 c-1 -8 -6 -17 -12
-21 -5 -4 -6 -4 -2 1 4 5 3 14 -2 21 -7 8 -5 12 4 12 8 0 13 -6 12 -13z
m-5299 -16 c-3 -8 -6 -5 -6 6 -1 11 2 17 5 13 3 -3 4 -12 1 -19z m103 18 c0
-2 -8 -10 -17 -17 -16 -13 -17 -12 -4 4 13 16 21 21 21 13z m795 -6 c3 -5 1
-10 -4 -10 -6 0 -11 5 -11 10 0 6 2 10 4 10 3 0 8 -4 11 -10z m1975 6 c0 -2
-7 -7 -16 -10 -8 -3 -12 -2 -9 4 6 10 25 14 25 6z m225 -6 c3 -5 1 -10 -4 -10
-6 0 -11 5 -11 10 0 6 2 10 4 10 3 0 8 -4 11 -10z m578 -5 c-3 -9 -8 -14 -10
-11 -3 3 -2 9 2 15 9 16 15 13 8 -4z m1107 11 c0 -2 -6 -9 -14 -15 -11 -9 -16
-9 -22 0 -4 7 -3 9 4 5 6 -3 13 -2 17 4 6 10 15 14 15 6z m-5059 -29 c-10 -9
-11 -8 -5 6 3 10 9 15 12 12 3 -3 0 -11 -7 -18z m4706 17 c-3 -3 -12 -4 -19
-1 -8 3 -5 6 6 6 11 1 17 -2 13 -5z m133 -3 c0 -6 -4 -12 -8 -15 -5 -3 -9 1
-9 9 0 8 4 15 9 15 4 0 8 -4 8 -9z m-4890 -11 c0 -5 -2 -10 -4 -10 -3 0 -8 5
-11 10 -3 6 -1 10 4 10 6 0 11 -4 11 -10z m310 0 c0 -5 -2 -10 -4 -10 -3 0 -8
5 -11 10 -3 6 -1 10 4 10 6 0 11 -4 11 -10z m1557 -3 c0 -7 -12 -14 -26 -15
l-26 -2 25 14 c14 8 25 14 26 15 0 1 1 -5 1 -12z m1497 5 c3 -5 -1 -9 -9 -9
-8 0 -12 4 -9 9 3 4 7 8 9 8 2 0 6 -4 9 -8z m673 2 c-3 -3 -12 -4 -19 -1 -8 3
-5 6 6 6 11 1 17 -2 13 -5z m1120 0 c-3 -3 -12 -4 -19 -1 -8 3 -5 6 6 6 11 1
17 -2 13 -5z m203 -9 c11 -13 10 -14 -4 -9 -9 3 -16 10 -16 15 0 13 6 11 20
-6z m310 11 c0 -3 -4 -8 -10 -11 -5 -3 -10 -1 -10 4 0 6 5 11 10 11 6 0 10 -2
10 -4z m-5570 -10 c0 -2 -7 -7 -16 -10 -8 -3 -12 -2 -9 4 6 10 25 14 25 6z
m2425 -6 c-3 -5 -12 -10 -18 -10 -7 0 -6 4 3 10 19 12 23 12 15 0z m1108 -15
c-3 -9 -8 -14 -10 -11 -3 3 -2 9 2 15 9 16 15 13 8 -4z m1287 11 c0 -3 -4 -8
-10 -11 -5 -3 -10 -1 -10 4 0 6 5 11 10 11 6 0 10 -2 10 -4z m-2763 -38 c-3
-8 -6 -5 -6 6 -1 11 2 17 5 13 3 -3 4 -12 1 -19z m-932 -38 c-3 -5 -12 -10
-18 -10 -7 0 -6 4 3 10 19 12 23 12 15 0z m1255 -1242 c0 -97 -72 -216 -172
-284 -24 -16 -45 -31 -48 -34 -12 -13 -69 -46 -113 -67 l-48 -23 -44 21 c-24
11 -49 27 -56 35 -6 8 -15 14 -20 14 -7 0 -99 51 -157 87 l-24 15 39 18 c21
10 61 28 88 40 48 21 207 109 284 158 20 12 47 27 61 33 13 6 27 14 30 18 3 4
26 20 53 35 26 15 47 34 47 41 0 8 8 11 20 8 11 -3 20 -11 20 -19 0 -7 4 -15
8 -18 5 -3 7 9 5 27 -4 30 -3 30 12 -8 8 -22 15 -66 15 -97z m230 121 c3 -1
37 -3 75 -4 39 -1 88 -4 110 -5 22 -2 46 -1 53 4 7 4 12 2 12 -4 0 -6 12 -8
31 -5 16 3 35 2 42 -2 6 -3 22 -8 36 -10 15 -1 32 -3 39 -4 7 -1 10 -9 7 -17
-5 -13 -3 -13 11 -2 13 11 17 11 24 1 4 -8 12 -11 18 -7 5 3 21 -3 35 -14 14
-11 30 -20 35 -20 6 0 14 -5 18 -12 4 -7 3 -8 -4 -4 -8 5 -10 2 -6 -8 3 -9 1
-16 -5 -16 -6 0 -11 7 -11 16 0 10 -6 14 -15 11 -18 -7 -30 9 -13 17 7 3 0 2
-16 -1 -21 -4 -27 -3 -21 6 5 9 1 9 -14 -1 l-22 -13 23 -5 c13 -3 38 -13 56
-23 26 -14 37 -16 48 -6 11 9 14 7 14 -10 0 -17 20 -31 107 -73 59 -28 113
-51 120 -51 6 0 10 -4 7 -9 -5 -8 14 -12 46 -10 8 0 -6 -17 -30 -39 -25 -21
-60 -53 -77 -69 -52 -48 -138 -169 -173 -242 l-32 -68 -127 -1 c-69 -1 -130
-2 -136 -4 -5 -1 -16 -3 -22 -3 -7 -1 -13 -11 -13 -21 0 -11 -7 -48 -16 -83
-14 -52 -15 -97 -11 -253 6 -188 7 -200 20 -241 8 -23 56 -34 152 -34 28 0 54
-3 57 -6 3 -3 -1 -18 -8 -34 -9 -17 -20 -90 -26 -173 -13 -167 -2 -325 39
-547 44 -238 43 -225 21 -221 -5 0 -8 -6 -8 -14 0 -21 -20 -19 -21 3 -1 16 -2
16 -6 -1 -3 -12 -10 -16 -24 -12 -18 6 -112 -19 -134 -35 -5 -4 -28 -13 -50
-20 -22 -7 -45 -16 -50 -21 -6 -4 -22 -10 -36 -12 -39 -8 -109 -46 -109 -60 0
-14 35 -47 50 -47 5 0 12 -5 16 -12 4 -7 3 -8 -4 -4 -7 4 -12 4 -12 1 0 -10
89 -126 129 -167 20 -21 50 -54 66 -74 17 -20 40 -45 52 -56 12 -12 20 -26 16
-31 -3 -6 -1 -7 5 -3 7 4 12 2 12 -4 0 -6 5 -8 10 -5 6 3 10 0 10 -7 1 -7 7
-2 15 12 l15 25 -6 -30 c-4 -16 -13 -34 -21 -38 -7 -4 -13 -13 -13 -20 0 -7 4
-6 10 3 9 13 10 13 10 0 0 -13 1 -13 11 0 9 13 10 13 6 0 -2 -8 -9 -14 -15
-13 -6 2 -17 -7 -23 -19 -10 -19 -9 -20 10 -15 11 3 24 1 27 -4 3 -5 -9 -9
-25 -9 -17 0 -31 4 -31 9 0 5 -9 7 -20 4 -11 -3 -18 -8 -15 -12 5 -9 -21 -7
-52 3 -39 13 -63 15 -68 6 -3 -5 -1 -11 5 -15 6 -4 8 -10 6 -14 -3 -4 5 -7 16
-7 15 1 24 -7 29 -24 l7 -25 1 24 c1 18 4 21 14 12 8 -6 17 -8 20 -4 4 3 9 -1
12 -9 4 -9 14 -14 25 -11 10 3 21 0 24 -5 4 -6 -2 -8 -14 -5 -12 3 -20 0 -20
-7 0 -10 -3 -10 -15 0 -8 7 -12 17 -8 24 4 6 -1 4 -11 -4 -11 -8 -14 -16 -7
-18 6 -2 11 -8 11 -13 0 -6 -5 -7 -10 -4 -6 3 -13 -1 -16 -9 -3 -9 -10 -16
-16 -16 -5 0 -6 6 -3 13 4 6 -1 3 -9 -7 -9 -11 -16 -16 -16 -12 0 4 -14 -3
-32 -15 -17 -13 -29 -18 -25 -12 5 8 0 8 -17 0 -13 -7 -22 -15 -20 -18 6 -10
-26 -20 -39 -12 -7 3 -9 3 -5 -2 20 -21 -75 -59 -96 -38 -9 10 -36 15 -74 15
-18 -1 -30 3 -28 7 3 4 -16 9 -42 9 -26 1 -72 9 -102 18 -30 9 -59 17 -65 18
-5 1 -34 10 -63 20 -63 21 -86 17 -55 -9 12 -10 19 -23 16 -29 -4 -6 2 -4 12
4 11 9 16 10 11 3 -4 -7 -2 -13 3 -13 6 0 11 -7 11 -15 0 -8 9 -19 20 -25 11
-6 20 -18 20 -26 0 -8 4 -12 10 -9 5 3 15 -3 22 -15 7 -11 20 -20 28 -21 10 0
11 -2 2 -6 -6 -2 -10 -8 -7 -12 7 -12 -97 -21 -287 -27 -153 -5 -168 -4 -176
13 -6 10 -10 20 -9 23 2 9 -37 70 -45 70 -4 0 -8 6 -8 13 -1 6 -11 20 -23 29
-12 9 -35 28 -52 41 -53 42 -127 60 -224 55 -94 -6 -140 -23 -200 -78 -18 -16
-40 -30 -47 -30 -13 0 -60 55 -53 62 2 1 -8 15 -21 29 -14 15 -41 48 -60 75
-19 27 -37 51 -40 54 -14 13 -90 131 -90 140 0 5 -4 10 -10 10 -5 0 -10 6 -10
13 0 8 -9 22 -20 32 -11 10 -20 22 -20 27 0 8 -68 116 -80 128 -10 9 -41 61
-72 119 -17 31 -36 63 -43 71 -7 8 -15 31 -18 51 -2 20 -7 41 -11 47 -3 6 -9
37 -12 69 -3 32 -12 83 -19 113 -13 55 -21 102 -30 194 -3 27 -8 52 -11 57 -6
11 -41 214 -49 289 -3 30 -8 66 -10 80 -5 24 -15 100 -19 146 -1 11 -6 25 -10
32 -8 14 -5 15 18 6 9 -3 16 -13 16 -20 0 -8 7 -17 15 -20 8 -4 15 -11 15 -18
0 -6 9 -22 20 -36 11 -14 32 -41 46 -60 22 -30 25 -31 19 -10 -4 14 -15 37
-26 52 -21 31 -43 79 -41 91 1 4 -2 7 -7 7 -13 0 -72 82 -68 94 2 5 -10 22
-26 38 -17 15 -27 28 -23 28 4 0 0 7 -9 16 -9 9 -14 23 -11 30 3 8 1 14 -4 14
-15 0 -33 41 -22 52 5 5 34 13 63 18 65 11 186 44 195 53 4 4 15 7 25 7 20 0
151 50 159 61 3 4 185 10 405 13 435 7 596 14 608 25 4 5 -156 10 -356 13
l-364 6 -42 26 c-22 14 -41 30 -41 34 0 4 32 30 71 57 39 28 78 58 87 68 22
23 29 22 47 -10 30 -55 81 -103 114 -107 17 -2 40 -11 51 -21 15 -14 29 -16
62 -12 149 22 198 41 258 102 28 29 37 33 45 22 5 -8 21 -19 34 -26 19 -11 21
-15 10 -23 -10 -7 -8 -8 7 -3 17 4 40 -9 98 -55 42 -33 84 -60 93 -61 11 0 13
-3 5 -6 -6 -2 -9 -9 -6 -14 3 -6 11 -5 20 2 8 6 14 8 14 4 0 -4 9 3 20 16 11
13 20 20 19 14 -3 -21 1 -35 11 -35 5 0 6 8 3 18 -6 15 -5 15 10 3 18 -14 20
-12 11 13 -3 9 -10 13 -15 10 -5 -3 -9 -1 -9 5 0 20 19 21 25 1 5 -15 14 -19
41 -18 19 1 34 5 34 10 0 5 -4 6 -10 3 -5 -3 -10 -1 -10 4 0 6 7 11 15 11 9 0
12 6 9 15 -4 9 0 15 10 15 18 0 22 -15 6 -25 -5 -3 -10 -10 -10 -15 0 -14 40
2 54 22 10 14 23 19 42 16 20 -2 29 1 29 12 1 8 6 14 13 13 13 -3 16 10 5 21
-4 4 -15 -3 -25 -16 -10 -13 -18 -18 -17 -13 0 6 6 18 14 28 12 17 18 18 50 7
20 -7 39 -10 42 -7 11 12 -9 26 -45 32 -21 3 -89 39 -162 86 -69 44 -137 85
-152 92 -16 6 -28 14 -28 17 0 3 12 11 28 17 47 20 129 68 147 87 10 10 34 28
54 41 120 78 186 203 179 344 -2 38 -6 67 -10 64 -5 -2 -8 -2 -8 1 0 2 -2 11
-5 19 -5 11 7 13 67 11 40 -2 75 -4 78 -5z m-1110 -139 c0 -3 -11 -18 -25 -33
-16 -16 -21 -27 -13 -28 7 0 3 -5 -9 -11 -23 -11 -83 5 -83 23 0 12 36 30 45
21 3 -4 5 -2 3 3 -1 6 1 11 6 12 5 1 12 5 15 10 14 19 46 31 53 19 4 -6 8 -13
8 -16z m1765 8 c7 -7 1 -8 -15 -3 -40 12 -59 26 -25 19 17 -4 35 -11 40 -16z
m-45 -30 c0 -4 -9 1 -20 12 -11 11 -20 23 -20 27 0 3 9 -2 20 -12 11 -10 20
-22 20 -27z m-2209 -51 c-5 -14 -18 -28 -28 -32 -10 -4 -38 -31 -63 -60 l-45
-54 -130 0 c-190 1 -205 0 -205 -11 0 -9 35 -51 108 -127 25 -27 28 -35 10
-31 -7 1 -25 -9 -39 -22 -15 -14 -48 -40 -75 -59 -76 -54 -158 -115 -172 -128
-21 -20 -41 -15 -46 10 -3 12 -8 50 -11 83 -5 55 -3 66 22 103 14 22 33 41 40
41 12 0 18 14 13 35 -1 6 2 7 6 3 4 -4 13 -3 21 3 7 6 13 9 13 7 0 -3 23 18
52 46 29 28 51 55 50 59 -1 5 2 6 7 3 5 -3 23 6 39 21 45 39 136 73 232 88 3
0 10 4 16 8 7 4 23 7 35 6 46 -2 114 10 117 21 2 5 8 10 13 10 6 0 7 -6 4 -12
-3 -7 0 -5 7 4 17 23 21 16 9 -15z m379 -25 l30 -19 -38 -44 c-20 -24 -40 -45
-44 -47 -5 -2 -8 -10 -8 -18 0 -15 -56 -48 -69 -39 -5 3 -28 7 -52 10 -24 3
-45 8 -48 10 -2 3 8 14 23 26 14 11 33 27 40 35 8 8 18 14 23 14 5 0 29 20 53
45 24 25 48 45 52 45 4 0 21 -8 38 -18z m270 -244 c0 -4 7 -8 15 -8 8 0 15 -7
15 -16 0 -11 -6 -14 -20 -9 -11 3 -20 4 -20 0 0 -10 54 -54 75 -61 27 -9 57
-42 50 -54 -11 -18 -42 -10 -80 20 -20 16 -67 46 -103 66 -37 20 -69 39 -71
41 -3 2 15 24 40 49 l44 45 28 -33 c15 -18 27 -36 27 -40z m-890 52 c0 -9 -57
-50 -69 -50 -9 0 -21 23 -21 40 0 5 12 10 28 12 43 5 62 4 62 -2z m304 -32
c-6 -10 -4 -10 7 0 15 14 85 16 94 2 3 -5 -8 -16 -25 -25 -16 -8 -30 -20 -30
-25 0 -6 -5 -10 -11 -10 -12 0 -94 -57 -147 -102 -18 -15 -45 -34 -62 -43 -27
-14 -31 -14 -55 8 l-25 22 37 25 c21 13 69 48 107 77 37 29 74 53 81 53 7 0
15 7 19 15 3 8 8 15 11 15 4 0 3 -6 -1 -12z m446 -99 c34 -18 41 -26 38 -47
-5 -39 -59 -67 -131 -66 -73 1 -88 14 -54 46 34 32 101 88 104 88 1 0 21 -10
43 -21z m-365 -76 c-33 -30 -82 -75 -108 -100 l-49 -44 -35 27 -36 28 23 15
c46 32 255 140 260 135 2 -3 -22 -30 -55 -61z m2880 -20 c-6 -28 -6 -28 7 -5
l14 23 23 -25 c13 -14 18 -26 13 -30 -6 -3 -12 0 -15 6 -2 7 -4 -3 -4 -22 0
-19 2 -27 4 -17 5 20 19 23 26 5 3 -7 6 2 6 21 1 19 4 32 7 29 3 -4 6 -10 6
-15 0 -17 20 -32 35 -26 12 5 15 2 10 -10 -4 -10 -2 -17 5 -17 7 0 9 -13 5
-35 -3 -19 -2 -35 4 -35 5 0 9 5 9 11 0 5 6 7 13 3 8 -5 8 -2 -2 9 -8 10 -9
17 -3 17 6 0 13 -4 17 -10 3 -5 11 -8 18 -6 7 1 9 1 4 -1 -4 -3 -5 -9 -1 -14
3 -5 -7 -9 -23 -9 -21 0 -24 -3 -13 -10 12 -7 10 -9 -8 -7 -12 0 -22 5 -22 9
0 4 -5 8 -11 8 -6 0 -9 -7 -5 -15 3 -8 1 -15 -4 -15 -6 0 -10 -5 -10 -11 0 -5
5 -7 12 -3 8 5 9 2 5 -10 -6 -14 -4 -15 14 -5 17 9 20 8 13 -3 -13 -20 -14
-41 -3 -55 6 -7 8 -17 4 -24 -6 -8 -9 -8 -15 1 -4 7 -13 -2 -24 -25 -13 -27
-23 -35 -39 -33 -15 2 -23 -4 -27 -22 l-6 -25 -8 23 c-4 12 -12 19 -18 16 -7
-4 -6 -9 2 -14 8 -5 2 -10 -19 -15 -17 -3 -31 -11 -31 -16 0 -16 -64 1 -87 23
-22 21 -63 18 -63 -5 0 -6 -7 -1 -16 11 -9 13 -14 32 -11 42 6 22 -14 32 -51
25 -20 -4 -22 -3 -8 3 17 7 17 9 2 24 -21 22 -20 33 6 50 25 17 19 52 -7 41
-13 -5 -14 -7 -3 -14 17 -11 -1 -10 -27 1 -19 8 -19 9 -1 9 16 1 17 3 5 18
-12 15 -12 16 1 8 20 -13 70 -15 70 -4 0 5 -15 9 -32 10 -18 0 -26 3 -18 6 17
7 30 23 30 38 -1 6 -7 1 -15 -9 -14 -19 -15 -18 -16 10 0 16 -3 23 -6 17 -7
-18 -23 -16 -23 2 0 9 9 15 23 16 21 0 21 1 2 9 -12 5 -14 9 -6 9 8 1 24 9 35
19 20 16 20 16 7 0 -12 -16 -11 -18 13 -16 14 1 26 6 26 11 0 5 8 3 17 -4 9
-8 14 -9 10 -3 -8 13 16 37 26 27 4 -3 7 3 7 14 0 17 7 22 39 25 22 2 37 0 34
-5 -2 -4 10 -6 27 -5 18 1 35 8 37 15 9 23 14 14 8 -14z m-3885 1 c0 -2 -9 -4
-20 -4 -11 0 -20 4 -20 9 0 5 9 7 20 4 11 -3 20 -7 20 -9z m664 -68 c-63 -60
-104 -96 -109 -96 -3 0 -14 -8 -25 -17 -10 -10 -54 -49 -98 -88 -44 -38 -85
-80 -92 -91 -12 -22 -50 -44 -75 -44 -13 0 -55 107 -55 142 0 13 35 35 128 81
70 35 150 80 179 101 29 20 61 38 72 39 11 0 19 5 18 9 -1 4 9 14 23 21 22 12
27 12 45 -6 l20 -21 -31 -30z m3039 61 c9 9 8 -9 -1 -24 -5 -8 -11 -3 -19 13
-10 21 -9 23 1 15 7 -6 16 -8 19 -4z m-24 -31 c-3 -3 -11 5 -18 17 -13 21 -12
21 5 5 10 -10 16 -20 13 -22z m-1988 -13 c13 -17 13 -17 -6 -3 -11 8 -22 16
-24 17 -2 2 0 3 6 3 6 0 17 -8 24 -17z m2309 7 c0 -5 -2 -10 -4 -10 -3 0 -8 5
-11 10 -3 6 -1 10 4 10 6 0 11 -4 11 -10z m-1890 -39 c0 -6 -4 -12 -8 -15 -5
-3 -9 1 -9 9 0 8 4 15 9 15 4 0 8 -4 8 -9z m-1338 -35 l28 -35 -28 -20 c-15
-11 -34 -27 -42 -34 -16 -15 -222 -117 -236 -117 -5 -1 -27 -9 -49 -20 -44
-21 -65 -25 -65 -11 0 9 30 25 42 23 4 -1 5 4 2 11 -5 14 49 50 60 39 4 -4 6
-2 4 4 -4 16 43 56 58 50 8 -3 11 0 8 8 -5 13 59 59 84 59 6 0 12 4 12 9 0 5
5 6 10 3 6 -4 9 -1 8 6 -2 7 12 17 30 22 17 5 32 16 32 23 0 23 13 16 42 -20z
m1248 30 c0 -2 -8 -10 -17 -17 -16 -13 -17 -12 -4 4 13 16 21 21 21 13z m160
-67 c-23 -17 -44 -28 -47 -25 -3 2 4 11 16 18 12 7 21 18 21 25 0 6 6 14 13
16 8 4 7 6 -3 6 -9 1 -20 -3 -25 -8 -6 -6 -10 -1 -11 13 l-2 23 40 -19 39 -19
-41 -30z m-200 31 c0 -5 -2 -10 -4 -10 -3 0 -8 5 -11 10 -3 6 -1 10 4 10 6 0
11 -4 11 -10z m1580 5 c0 -2 -6 -8 -13 -14 -10 -8 -14 -7 -14 2 0 8 6 14 14
14 7 0 13 -1 13 -2z m-1436 -21 c3 -8 2 -12 -4 -9 -6 3 -10 10 -10 16 0 14 7
11 14 -7z m-868 -21 c-6 -6 -36 9 -36 18 0 5 9 4 20 -3 10 -7 18 -14 16 -15z
m775 2 c-12 -6 -19 -14 -16 -17 3 -3 -4 -8 -16 -11 -19 -5 -20 -4 -5 12 9 10
13 21 9 25 -4 4 1 4 11 0 13 -5 17 -4 12 4 -5 8 -2 10 10 5 14 -5 14 -7 -5
-18z m1564 15 c-3 -5 -14 -10 -23 -9 -14 0 -13 2 3 9 27 11 27 11 20 0z
m-2088 -16 c-3 -3 -12 -4 -19 -1 -8 3 -5 6 6 6 11 1 17 -2 13 -5z m596 -1 c-7
-2 -13 -12 -13 -21 0 -15 -2 -15 -10 -2 -9 15 4 30 25 29 6 0 4 -3 -2 -6z
m-613 -17 c0 -2 -9 -6 -20 -9 -11 -3 -18 -1 -14 4 5 9 34 13 34 5z m575 -31
c1 -20 -2 -22 -17 -14 -10 5 -18 15 -17 22 0 9 2 9 6 -1 7 -19 23 -4 16 16 -4
10 -2 14 3 9 5 -5 9 -19 9 -32z m-701 16 c4 -5 -3 -7 -14 -4 -23 6 -26 13 -6
13 8 0 17 -4 20 -9z m513 -23 c-3 -8 -6 -5 -6 6 -1 11 2 17 5 13 3 -3 4 -12 1
-19z m1663 18 c0 -2 -8 -10 -17 -17 -16 -13 -17 -12 -4 4 13 16 21 21 21 13z
m535 -6 c3 -6 -1 -7 -9 -4 -18 7 -21 14 -7 14 6 0 13 -4 16 -10z m-2133 -42
c-9 -9 -15 -9 -24 1 -9 10 -9 12 -1 7 6 -3 15 -1 18 5 4 5 10 8 13 4 3 -3 0
-11 -6 -17z m-1059 5 c-7 -2 -19 -2 -25 0 -7 3 -2 5 12 5 14 0 19 -2 13 -5z
m-1056 -71 c-26 -28 -21 -35 23 -29 l39 5 15 -52 c8 -28 15 -55 15 -59 0 -4 7
-15 16 -23 8 -9 15 -23 15 -31 0 -9 7 -24 16 -34 9 -10 17 -29 18 -42 0 -14 3
-24 6 -22 3 2 19 -22 34 -53 33 -65 77 -135 89 -140 4 -2 7 -7 7 -12 0 -5 21
-30 46 -57 25 -26 53 -59 62 -73 9 -14 25 -31 34 -38 10 -7 16 -18 12 -23 -3
-5 -2 -8 3 -7 4 2 31 -20 60 -47 59 -56 62 -66 98 -305 8 -52 20 -106 26 -120
6 -14 14 -46 18 -72 6 -38 5 -48 -6 -48 -8 0 -12 4 -9 8 3 5 -8 16 -25 26 -16
9 -29 21 -29 27 0 5 -5 9 -12 9 -7 0 -28 15 -47 33 -18 17 -30 26 -26 18 5 -8
-8 -2 -28 13 -35 27 -51 46 -25 30 7 -4 8 -3 4 5 -4 6 -12 9 -17 6 -10 -7
-129 107 -129 124 0 5 -11 22 -25 37 -13 14 -22 30 -19 35 3 5 1 9 -5 9 -5 0
-15 16 -22 35 -7 19 -16 35 -20 35 -4 0 -12 15 -20 33 -7 17 -15 34 -18 37
-10 9 -29 43 -62 108 -17 34 -35 62 -39 62 -5 0 -31 46 -58 103 -46 92 -58
121 -64 152 -1 6 -7 16 -14 23 -7 7 -16 28 -20 47 -3 19 -10 35 -14 35 -7 0
-31 127 -35 183 -1 22 4 29 24 34 14 3 31 9 36 13 6 5 24 10 40 13 17 2 34 5
39 6 5 0 2 -7 -7 -17z m4210 -8 c-3 -3 -12 -4 -19 -1 -8 3 -5 6 6 6 11 1 17
-2 13 -5z m-377 -34 c0 -5 -2 -10 -4 -10 -3 0 -8 5 -11 10 -3 6 -1 10 4 10 6
0 11 -4 11 -10z m-3603 -66 c-3 -3 -12 -4 -19 -1 -8 3 -5 6 6 6 11 1 17 -2 13
-5z m-9 -149 c-3 -3 -9 2 -12 12 -6 14 -5 15 5 6 7 -7 10 -15 7 -18z m5253
-344 c6 10 8 8 6 -9 -1 -13 -5 -18 -10 -13 -5 5 -16 7 -23 4 -9 -3 -14 2 -14
13 0 16 2 17 10 4 8 -13 10 -12 11 5 1 19 2 19 6 1 4 -15 7 -16 14 -5z m-4971
-51 c0 -5 -5 -10 -11 -10 -5 0 -7 5 -4 10 3 6 8 10 11 10 2 0 4 -4 4 -10z m24
-6 c3 -8 2 -12 -4 -9 -6 3 -10 10 -10 16 0 14 7 11 14 -7z m4903 -6 c-3 -8 -6
-5 -6 6 -1 11 2 17 5 13 3 -3 4 -12 1 -19z m21 -66 c-10 -2 -18 -8 -18 -14 0
-6 -2 -9 -5 -6 -12 12 7 37 23 30 16 -6 15 -7 0 -10z m9 -31 c0 -11 -5 -18 -9
-15 -4 3 -5 11 -1 19 7 21 12 19 10 -4z m-46 -61 c21 0 42 -73 26 -89 -8 -8
-7 -11 4 -11 10 -1 10 -3 -3 -11 -20 -11 -24 -39 -6 -39 9 0 9 -3 0 -12 -15
-15 -16 -31 0 -22 6 4 8 3 4 -4 -12 -20 -65 -41 -70 -28 -2 6 -5 3 -5 -6 -1
-11 6 -18 18 -18 10 0 21 -6 24 -13 6 -15 -13 -42 -30 -43 -34 -3 -35 -5 -18
-24 10 -11 24 -20 31 -20 15 0 12 -24 -10 -64 -11 -22 -12 -33 -4 -43 8 -11 7
-12 -7 -7 -13 5 -16 4 -11 -4 4 -7 2 -12 -6 -12 -16 0 -18 52 -3 62 6 5 3 8
-6 8 -9 0 -22 7 -29 15 -10 12 -10 15 0 15 24 0 0 13 -25 15 -14 0 -25 -5 -25
-12 0 -7 -4 -13 -9 -13 -5 0 -12 -7 -15 -16 -6 -15 -4 -15 11 -3 16 13 17 12
4 -4 -8 -10 -20 -16 -27 -13 -8 3 -11 0 -7 -10 3 -7 0 -14 -7 -14 -6 0 -8 -5
-5 -10 4 -6 11 -8 16 -5 5 4 9 1 9 -4 0 -6 -7 -11 -16 -11 -8 0 -12 -4 -9 -10
3 -5 2 -10 -2 -10 -5 0 -14 -9 -21 -21 -11 -17 -11 -20 0 -14 7 3 5 0 -5 -8
-10 -8 -19 -24 -20 -36 -1 -12 -8 -21 -17 -21 -22 0 -24 -46 -2 -60 13 -9 6
-10 -33 -6 -27 4 -103 9 -168 13 -114 6 -119 7 -128 30 -11 31 -12 26 9 50 21
25 82 36 82 15 0 -11 3 -12 14 -3 11 9 15 9 18 0 5 -15 48 -2 48 15 0 7 9 21
21 32 16 14 22 15 28 5 6 -10 10 -9 15 4 3 9 3 22 -1 27 -3 7 -1 8 6 4 8 -5
10 0 7 18 -3 14 -7 30 -11 36 -3 5 -2 18 4 27 11 20 -12 73 -32 73 -6 0 -12
11 -12 24 0 17 5 23 20 22 11 -1 31 2 45 6 26 8 31 25 52 154 1 6 11 9 22 7
17 -4 18 -3 6 6 -12 8 -11 10 7 8 17 -1 20 -4 11 -15 -8 -9 -8 -16 -1 -20 6
-4 13 -17 17 -30 8 -24 45 -49 55 -36 3 5 14 15 24 23 15 12 17 12 11 -4 -6
-15 -5 -16 15 -4 11 8 21 17 21 21 0 5 4 8 8 8 13 0 6 -71 -8 -80 -7 -5 -2 -7
14 -7 21 0 25 3 21 18 -4 11 -2 19 4 19 6 0 8 7 4 16 -3 9 0 20 7 24 8 5 9 13
4 21 -4 8 -9 22 -9 32 -2 20 -24 39 -37 31 -4 -3 -8 3 -8 12 0 13 -3 15 -11 7
-8 -8 -6 -19 6 -39 l17 -29 -26 28 c-14 16 -24 33 -21 38 3 5 -1 6 -9 3 -19
-7 -20 -16 -5 -31 8 -8 7 -13 -2 -18 -8 -5 -10 -4 -5 3 10 17 -9 15 -23 -2
-10 -11 -8 -15 6 -19 16 -4 16 -5 1 -6 -20 -1 -37 21 -19 27 9 3 9 8 -1 20
-12 15 -11 16 6 2 17 -13 18 -13 14 5 -2 11 -10 19 -17 17 -7 -1 -10 2 -6 8 5
8 12 7 23 -2 13 -11 15 -11 9 4 -8 23 15 41 33 25 9 -8 11 -8 6 0 -8 14 26 23
74 17 19 -2 42 -4 51 -4z m-61 -101 c0 -18 -18 -9 -23 12 -4 16 -3 18 9 8 8
-6 14 -15 14 -20z m225 -9 c-3 -5 -12 -10 -18 -10 -7 0 -6 4 3 10 19 12 23 12
15 0z m-341 -54 c-3 -9 -10 -13 -16 -10 -5 3 -4 12 3 20 15 18 22 13 13 -10z
m-4677 -319 c0 -8 -6 -14 -14 -14 -9 0 -10 4 -2 14 6 7 12 13 14 13 1 0 2 -6
2 -13z m4813 -1 c0 -2 -11 -6 -25 -8 -14 -3 -25 -1 -25 3 0 5 11 9 25 9 14 0
25 -2 25 -4z m-4737 -28 c-2 -5 -1 -14 4 -20 4 -7 8 -19 9 -25 4 -23 -12 -14
-27 15 -8 15 -18 30 -23 34 -5 3 2 5 17 5 14 -1 23 -5 20 -9z m4074 -23 c-9
-8 -14 -24 -12 -35 2 -12 0 -18 -6 -15 -5 4 -7 10 -4 15 3 5 1 12 -5 15 -7 4
-3 14 11 26 26 22 39 17 16 -6z m-4192 -14 c3 -5 0 -13 -6 -17 -7 -4 -9 -3 -5
4 3 5 0 13 -6 15 -9 4 -10 6 -1 6 6 1 14 -3 18 -8z m-95 -35 c0 -3 -4 -8 -10
-11 -5 -3 -10 -1 -10 4 0 6 5 11 10 11 6 0 10 -2 10 -4z m4201 -25 c-5 -25 -6
-25 -9 -3 -2 12 -8 20 -13 17 -5 -4 -9 -2 -9 4 0 5 8 9 18 8 14 -1 17 -7 13
-26z m-4045 -5 c1 -9 -6 -11 -25 -7 -25 5 -25 6 -3 9 14 2 20 8 16 15 -4 7 -3
8 1 4 5 -4 10 -13 11 -21z m35 0 c5 3 9 0 9 -6 0 -15 -23 -7 -26 8 -1 7 0 8 3
2 2 -5 9 -8 14 -4z m4080 -13 c-12 -20 -14 -14 -5 12 4 9 9 14 11 11 3 -2 0
-13 -6 -23z m-4294 11 c-3 -3 -12 -4 -19 -1 -8 3 -5 6 6 6 11 1 17 -2 13 -5z
m110 -50 c2 -10 0 -13 -3 -6 -3 6 -16 12 -29 12 -13 0 -26 3 -28 8 -3 4 9 7
26 6 24 -1 33 -6 34 -20z m-157 -5 c0 -6 -4 -7 -10 -4 -5 3 -10 11 -10 16 0 6
5 7 10 4 6 -3 10 -11 10 -16z m72 -11 c-8 -8 -9 -4 -5 13 4 13 8 18 11 10 2
-7 -1 -18 -6 -23z m-162 -3 c0 -8 -2 -15 -4 -15 -2 0 -6 7 -10 15 -3 8 -1 15
4 15 6 0 10 -7 10 -15z m544 -261 c4 -10 1 -14 -6 -12 -15 5 -23 28 -10 28 5
0 13 -7 16 -16z m2393 -126 c-3 -8 -6 -5 -6 6 -1 11 2 17 5 13 3 -3 4 -12 1
-19z m-140 -30 c-3 -8 -6 -5 -6 6 -1 11 2 17 5 13 3 -3 4 -12 1 -19z m40 -20
c-3 -8 -6 -5 -6 6 -1 11 2 17 5 13 3 -3 4 -12 1 -19z m-42 -98 c3 -5 1 -10 -4
-10 -6 0 -11 5 -11 10 0 6 2 10 4 10 3 0 8 -4 11 -10z m-2028 -56 c-3 -3 -12
-4 -19 -1 -8 3 -5 6 6 6 11 1 17 -2 13 -5z m1978 -12 c-3 -3 -11 0 -18 7 -9
10 -8 11 6 5 10 -3 15 -9 12 -12z m-1978 -44 c0 -7 3 -24 6 -38 6 -20 4 -19
-8 5 -8 17 -14 23 -15 15 0 -9 7 -25 15 -37 12 -17 12 -23 1 -32 -11 -9 -15
-3 -20 30 -4 26 -2 46 5 55 14 17 16 17 16 2z m107 -34 c3 -8 2 -12 -4 -9 -6
3 -10 10 -10 16 0 14 7 11 14 -7z m-39 -34 c3 -6 -1 -7 -9 -4 -18 7 -21 14 -7
14 6 0 13 -4 16 -10z m65 -15 c14 -18 14 -19 -2 -7 -10 8 -23 10 -30 6 -9 -6
-9 -3 1 9 8 10 14 16 15 15 1 -2 8 -12 16 -23z m1096 0 c1 -8 -2 -15 -6 -15
-5 0 -8 9 -7 20 1 21 10 18 13 -5z m-1126 -35 c-6 -11 -13 -20 -16 -20 -2 0 0
9 6 20 6 11 13 20 16 20 2 0 0 -9 -6 -20z m1190 10 c0 -5 -2 -10 -4 -10 -3 0
-8 5 -11 10 -3 6 -1 10 4 10 6 0 11 -4 11 -10z m-1110 -40 c0 -4 -6 -13 -14
-19 -12 -10 -13 -8 -9 10 5 17 3 20 -7 14 -8 -5 -11 -4 -6 3 7 12 36 5 36 -8z
m-170 -22 c0 -6 -6 -5 -15 2 -8 7 -15 14 -15 16 0 2 7 1 15 -2 8 -4 15 -11 15
-16z m90 2 c0 -5 -5 -10 -12 -10 -6 0 -4 -8 6 -19 13 -14 14 -21 5 -27 -7 -4
-10 -3 -5 4 3 6 -1 15 -9 20 -10 5 -13 15 -9 25 7 18 24 23 24 7z m-49 -27
c13 -16 12 -17 -3 -4 -17 13 -22 21 -14 21 2 0 10 -8 17 -17z m100 -21 c-6
-11 -8 -22 -6 -26 3 -3 0 -2 -6 3 -8 6 -8 15 1 31 6 12 14 19 17 17 2 -3 0
-14 -6 -25z m-63 -21 c11 -7 10 -9 -3 -14 -9 -4 -13 -3 -10 3 3 6 1 10 -5 10
-6 0 -13 -7 -16 -15 -4 -8 -11 -15 -17 -15 -5 0 -2 9 8 20 20 22 24 23 43 11z
m-13 -41 c3 -5 1 -10 -4 -10 -6 0 -11 5 -11 10 0 6 2 10 4 10 3 0 8 -4 11 -10z
m22 -12 c-3 -8 -6 -5 -6 6 -1 11 2 17 5 13 3 -3 4 -12 1 -19z m-52 -18 c-3 -6
4 -14 17 -19 13 -6 17 -10 8 -11 -11 0 -10 -4 5 -16 17 -13 18 -16 5 -24 -25
-16 -47 -12 -25 3 12 10 14 16 7 21 -7 4 -12 2 -12 -3 0 -6 -7 -11 -15 -11 -8
0 -15 5 -15 11 0 5 -5 7 -12 3 -13 -8 -3 12 20 39 16 19 27 23 17 7z m1855
-30 c0 -5 -2 -10 -4 -10 -3 0 -8 5 -11 10 -3 6 -1 10 4 10 6 0 11 -4 11 -10z
m-1783 -22 c-3 -8 -6 -5 -6 6 -1 11 2 17 5 13 3 -3 4 -12 1 -19z m1721 10 c10
-10 8 -16 -10 -30 -23 -17 -23 -17 -3 -33 13 -9 15 -14 5 -12 -8 2 -11 2 -6
-1 4 -2 3 -8 -4 -12 -8 -5 -6 -9 6 -14 10 -4 15 -4 11 0 -4 4 -1 14 5 22 10
11 8 17 -7 28 -18 13 -17 14 8 14 22 0 26 -4 25 -25 -1 -14 -6 -25 -10 -25 -4
0 -8 -5 -8 -11 0 -5 3 -8 8 -6 4 3 6 -23 5 -56 -1 -34 -2 -92 -3 -129 0 -54
-3 -68 -15 -68 -8 0 -15 -7 -15 -15 0 -8 -4 -15 -10 -15 -5 0 -10 -8 -11 -17
0 -15 -2 -15 -9 2 -8 18 -9 17 -9 -8 -1 -15 -8 -30 -16 -33 -8 -4 -12 -11 -9
-16 4 -6 -16 -31 -43 -57 -49 -46 -53 -52 -53 -72 0 -5 -5 -7 -12 -3 -6 4 -8
3 -4 -4 3 -6 -1 -17 -9 -25 -8 -9 -15 -20 -15 -26 0 -6 -8 -11 -17 -11 -14 0
-15 -2 -5 -9 11 -7 11 -9 -2 -14 -9 -4 -16 -11 -16 -17 0 -6 -11 -21 -25 -34
-13 -13 -22 -26 -18 -30 4 -4 0 -4 -10 -1 -14 6 -15 9 -2 22 19 18 20 29 1 14
-7 -6 -21 -9 -30 -5 -9 3 -16 1 -16 -6 0 -6 5 -8 10 -5 6 3 10 1 10 -5 0 -7
-7 -9 -16 -6 -9 3 -23 6 -32 7 -14 0 -13 2 3 9 19 8 19 9 -2 9 -13 1 -23 -4
-23 -10 0 -6 -8 -8 -17 -6 -10 3 -31 8 -46 11 -15 4 -26 10 -23 14 2 4 -24 7
-58 7 -33 1 -70 5 -81 10 -25 11 -21 10 -80 19 -27 4 -77 14 -110 21 -33 8
-72 17 -86 19 -15 2 -51 12 -81 21 -53 17 -59 23 -77 77 -1 4 -16 22 -32 39
-17 18 -42 56 -56 83 -14 28 -34 62 -45 75 -13 17 -15 27 -7 31 6 4 11 11 11
16 0 5 4 8 9 7 10 -3 43 22 68 51 9 10 27 28 40 40 13 12 36 49 52 84 l28 62
328 0 c371 0 457 3 475 18 7 5 29 13 48 17 19 3 44 9 55 11 16 4 17 3 5 -5
-13 -9 -13 -11 1 -11 9 0 24 9 34 20 21 23 27 24 43 8z m35 -13 c-3 -9 -8 -14
-10 -11 -3 3 -2 9 2 15 9 16 15 13 8 -4z m-1863 -15 c0 -5 -4 -10 -10 -10 -5
0 -10 5 -10 10 0 6 5 10 10 10 6 0 10 -4 10 -10z m119 -33 c0 -12 -3 -16 -6
-9 -2 6 -9 10 -14 6 -10 -6 -13 19 -3 29 11 11 24 -3 23 -26z m4099 27 c12 -4
22 -11 22 -16 0 -6 -6 -8 -13 -5 -8 3 -20 1 -28 -4 -11 -7 -11 -9 3 -9 12 0
15 -5 11 -16 -4 -10 -8 -12 -12 -5 -7 10 -41 8 -61 -4 -6 -4 -9 -1 -8 7 2 7
-5 12 -15 12 -29 -3 -14 19 24 32 41 15 47 16 77 8z m-4114 -84 c-6 -28 -5
-30 23 -26 28 3 29 1 28 -30 -2 -58 -20 -62 -49 -11 -22 36 -25 49 -16 71 13
35 21 33 14 -4z m31 0 c3 -5 1 -10 -4 -10 -6 0 -11 5 -11 10 0 6 2 10 4 10 3
0 8 -4 11 -10z m50 -90 c-3 -5 1 -10 9 -10 9 0 16 -4 16 -10 0 -6 -10 -5 -25
2 -19 8 -22 14 -13 20 17 10 20 10 13 -2z m4028 -51 c22 -39 22 -49 -4 -102
l-21 -43 -59 0 c-52 1 -59 3 -60 21 0 11 -1 43 -2 70 -2 63 18 84 83 85 40 0
47 -4 63 -31z m-4006 4 c5 3 17 -3 26 -14 20 -23 22 -36 3 -20 -7 6 -27 8 -45
5 -28 -6 -31 -4 -31 17 1 21 2 22 11 7 5 -10 15 -18 21 -18 9 0 9 3 0 12 -7 7
-12 17 -12 23 0 5 4 4 9 -4 5 -7 13 -11 18 -8z m68 -62 c3 -5 1 -12 -5 -16 -5
-3 -10 1 -10 9 0 18 6 21 15 7z m30 -11 c-3 -5 -1 -10 4 -10 6 0 11 -4 11 -10
0 -5 -7 -7 -15 -4 -17 7 -21 34 -4 34 5 0 7 -4 4 -10z m45 -27 c0 -21 -3 -24
-9 -14 -5 8 -7 20 -4 28 8 21 13 15 13 -14z m43 -4 c5 -3 2 -9 -5 -12 -9 -3
-14 3 -15 15 -1 11 1 16 5 12 4 -5 11 -12 15 -15z m54 -21 c-3 -8 -6 -5 -6 6
-1 11 2 17 5 13 3 -3 4 -12 1 -19z m138 12 c3 -5 -1 -10 -10 -10 -9 0 -13 5
-10 10 3 6 8 10 10 10 2 0 7 -4 10 -10z m-238 -28 c-31 -2 -45 -7 -41 -14 4
-7 2 -8 -4 -4 -7 4 -12 13 -12 19 0 8 16 11 52 7 l53 -5 -48 -3z m21 -19 c-10
-2 -26 -2 -35 0 -10 3 -2 5 17 5 19 0 27 -2 18 -5z m262 -34 c0 -5 5 -7 12 -3
7 4 8 3 4 -4 -4 -6 -13 -9 -21 -5 -17 6 -20 23 -5 23 6 0 10 -5 10 -11z m-85
-26 c0 -12 -3 -23 -7 -23 -5 0 -8 7 -8 15 0 8 -4 15 -10 15 -5 0 -10 -5 -10
-12 0 -6 -3 -8 -6 -5 -9 9 12 34 28 34 7 0 13 -11 13 -24z m-108 5 c-1 -34 4
-48 17 -48 8 0 17 -6 19 -12 3 -8 6 -5 6 5 1 12 5 15 14 10 6 -4 21 -6 32 -4
11 2 16 -1 12 -6 -5 -4 -12 -8 -15 -9 -4 0 -15 -4 -24 -7 -39 -15 -49 -16 -43
-7 3 6 -1 10 -10 10 -9 0 -14 4 -10 9 3 5 1 12 -5 16 -6 4 -8 11 -5 16 4 5 -1
9 -9 9 -22 0 -20 17 2 23 9 3 18 5 18 6 1 0 2 -5 1 -11z m34 -19 c-5 -13 -10
-19 -10 -12 -1 15 10 45 15 40 3 -2 0 -15 -5 -28z m119 15 c0 -2 -7 -4 -15 -4
-8 0 -15 4 -15 10 0 5 7 7 15 4 8 -4 15 -8 15 -10z m60 -145 c0 -8 4 -8 13 0
18 14 36 -4 30 -30 -8 -30 -24 -22 -18 9 5 23 4 24 -5 9 -10 -15 -13 -15 -26
-3 -16 17 -18 26 -4 26 6 0 10 -5 10 -11z m270 -50 c10 -6 4 -7 -15 -2 -16 4
-40 7 -52 8 -11 0 -19 4 -16 8 5 9 60 0 83 -14z m254 -104 c-4 -8 -10 -15 -15
-15 -4 0 -6 7 -3 15 4 8 10 15 15 15 4 0 6 -7 3 -15z m76 -11 c16 -10 18 -13
5 -8 -11 4 -28 6 -38 6 -9 0 -15 3 -12 9 8 12 15 11 45 -7z m-94 -33 c1 -6 0
-7 -3 -1 -2 5 -9 8 -13 5 -5 -3 -11 -1 -14 4 -4 5 2 8 11 7 9 -2 18 -8 19 -15z
m-63 -81 c-3 -12 -8 -19 -11 -16 -5 6 5 36 12 36 2 0 2 -9 -1 -20z m68 -3
c-10 -9 -11 -8 -5 6 3 10 9 15 12 12 3 -3 0 -11 -7 -18z m-41 3 c0 -5 -5 -10
-11 -10 -5 0 -7 5 -4 10 3 6 8 10 11 10 2 0 4 -4 4 -10z"/>
<path d="M3611 5804 c0 -11 3 -14 6 -6 3 7 2 16 -1 19 -3 4 -6 -2 -5 -13z"/>
<path d="M3630 5798 c0 -4 4 -8 9 -8 6 0 12 4 15 8 3 5 -1 9 -9 9 -8 0 -15 -4
-15 -9z"/>
<path d="M2591 4394 c0 -11 3 -14 6 -6 3 7 2 16 -1 19 -3 4 -6 -2 -5 -13z"/>
<path d="M2780 4411 c0 -5 5 -13 10 -16 6 -3 10 -2 10 4 0 5 -4 13 -10 16 -5
3 -10 2 -10 -4z"/>
<path d="M3076 4383 c-6 -14 -5 -15 5 -6 7 7 10 15 7 18 -3 3 -9 -2 -12 -12z"/>
<path d="M3188 4383 c7 -3 16 -2 19 1 4 3 -2 6 -13 5 -11 0 -14 -3 -6 -6z"/>
<path d="M3254 4378 c-4 -6 -3 -8 4 -4 5 3 13 0 15 -6 3 -8 6 -6 6 5 1 19 -14
23 -25 5z"/>
<path d="M3285 4350 c-8 -13 5 -13 25 0 13 8 13 10 -2 10 -9 0 -20 -4 -23 -10z"/>
<path d="M2610 3560 c0 -5 7 -7 15 -4 8 4 15 8 15 10 0 2 -7 4 -15 4 -8 0 -15
-4 -15 -10z"/>
<path d="M3326 2128 c3 -5 10 -6 15 -3 13 9 11 12 -6 12 -8 0 -12 -4 -9 -9z"/>
<path d="M1936 1742 c-14 -14 -1 -24 72 -58 42 -20 95 -45 117 -55 22 -11 47
-19 55 -19 9 0 20 -4 25 -9 9 -7 158 -44 273 -66 17 -4 32 -10 32 -13 0 -4 17
-7 38 -8 20 0 71 -8 112 -17 92 -21 270 -57 282 -57 4 0 8 4 8 9 0 12 -30 22
-100 32 -77 11 -175 33 -312 68 -64 17 -127 31 -140 31 -59 1 -306 89 -430
154 -14 8 -29 12 -32 8z"/>
<path d="M3224 1491 c10 -15 -23 -42 -42 -36 -7 3 -10 0 -7 -5 8 -14 35 -13
35 1 0 6 6 9 13 6 16 -6 20 30 5 39 -7 5 -8 2 -4 -5z"/>
<path d="M4195 3750 c-3 -5 -1 -10 4 -10 6 0 11 5 11 10 0 6 -2 10 -4 10 -3 0
-8 -4 -11 -10z"/>
<path d="M4270 3715 c0 -8 2 -15 4 -15 2 0 6 7 10 15 3 8 1 15 -4 15 -6 0 -10
-7 -10 -15z"/>
<path d="M4319 3683 c-13 -16 -12 -17 4 -4 16 13 21 21 13 21 -2 0 -10 -8 -17
-17z"/>
<path d="M4278 3683 c7 -3 16 -2 19 1 4 3 -2 6 -13 5 -11 0 -14 -3 -6 -6z"/>
<path d="M4396 3655 c-18 -13 -18 -14 3 -12 11 1 21 7 21 14 0 16 0 16 -24 -2z"/>
<path d="M4356 3647 c3 -10 9 -15 12 -12 3 3 0 11 -7 18 -10 9 -11 8 -5 -6z"/>
<path d="M4085 3641 c-3 -2 -5 -8 -5 -13 0 -13 20 -9 36 6 12 13 12 15 -6 13
-12 -1 -23 -3 -25 -6z"/>
<path d="M4383 3454 c9 -3 15 -10 12 -15 -4 -5 -1 -9 5 -9 19 0 5 25 -16 27
-16 2 -16 1 -1 -3z"/>
<path d="M4111 3423 c0 -12 2 -14 6 -4 5 11 7 11 15 0 8 -12 9 -12 6 0 -6 22
-28 25 -27 4z"/>
<path d="M5080 2030 c0 -5 5 -10 11 -10 5 0 7 5 4 10 -3 6 -8 10 -11 10 -2 0
-4 -4 -4 -10z"/>
<path d="M5117 2019 c7 -7 15 -10 18 -7 3 3 -2 9 -12 12 -14 6 -15 5 -6 -5z"/>
<path d="M1317 976 c-3 -8 -2 -18 3 -21 13 -8 24 15 12 27 -6 6 -11 4 -15 -6z"/>
<path d="M3075 759 c-4 -6 -5 -12 -2 -15 2 -3 7 2 10 11 7 17 1 20 -8 4z"/>
<path d="M3117 659 c7 -7 15 -10 18 -7 3 3 -2 9 -12 12 -14 6 -15 5 -6 -5z"/>
<path d="M3120 625 c0 -8 4 -15 10 -15 5 0 7 7 4 15 -4 8 -8 15 -10 15 -2 0
-4 -7 -4 -15z"/>
<path d="M3070 589 c0 -5 5 -7 10 -4 6 3 10 8 10 11 0 2 -4 4 -10 4 -5 0 -10
-5 -10 -11z"/>
<path d="M1410 790 c0 -5 10 -10 23 -10 18 0 19 2 7 10 -19 13 -30 13 -30 0z"/>
<path d="M1431 754 c0 -11 3 -14 6 -6 3 7 2 16 -1 19 -3 4 -6 -2 -5 -13z"/>
<path d="M350 5870 c0 -14 28 -19 33 -6 3 6 -4 13 -14 13 -10 1 -19 -2 -19 -7z"/>
<path d="M436 5872 c-3 -5 1 -9 9 -9 8 0 15 4 15 9 0 4 -4 8 -9 8 -6 0 -12 -4
-15 -8z"/>
<path d="M478 5873 c7 -3 16 -2 19 1 4 3 -2 6 -13 5 -11 0 -14 -3 -6 -6z"/>
<path d="M580 5870 c-9 -6 -10 -10 -3 -10 6 0 15 5 18 10 8 12 4 12 -15 0z"/>
<path d="M921 5864 c0 -11 3 -14 6 -6 3 7 2 16 -1 19 -3 4 -6 -2 -5 -13z"/>
<path d="M1006 5859 c-8 -12 -20 -19 -28 -17 -17 6 -38 -16 -37 -39 0 -15 2
-14 11 5 7 13 18 21 27 19 9 -1 24 9 33 23 19 27 25 11 8 -21 -8 -13 -7 -19 0
-19 6 0 8 -5 4 -12 -5 -8 0 -9 17 -5 13 4 27 7 31 7 4 0 6 9 5 19 0 11 -5 17
-9 15 -5 -3 -6 -9 -3 -14 6 -9 -20 -21 -29 -13 -10 11 -7 28 10 49 14 17 15
17 10 1 -4 -11 -2 -16 5 -12 16 10 5 28 -19 31 -13 2 -27 -4 -36 -17z"/>
<path d="M1095 5870 c4 -6 11 -8 16 -5 15 10 23 -26 8 -37 -10 -7 -9 -8 6 -3
11 4 28 10 37 12 14 4 9 10 -19 24 -41 21 -57 24 -48 9z"/>
<path d="M1170 5870 c0 -5 5 -10 10 -10 6 0 10 5 10 10 0 6 -4 10 -10 10 -5 0
-10 -4 -10 -10z"/>
<path d="M1200 5865 c0 -8 3 -15 8 -15 4 0 15 -14 25 -32 11 -19 21 -28 25
-21 4 5 15 9 24 8 9 -2 19 3 22 10 3 9 0 12 -8 9 -8 -3 -17 -1 -21 5 -3 6 -1
11 4 11 6 0 10 6 9 13 -2 8 6 11 22 9 14 -2 22 0 17 4 -14 14 -45 14 -51 -1
-3 -8 -10 -15 -17 -15 -6 0 -9 6 -6 13 3 8 -1 14 -8 14 -7 0 -10 -8 -7 -19 2
-10 8 -18 13 -18 5 0 6 -7 2 -16 -5 -13 -10 -8 -25 20 -20 39 -28 45 -28 21z"/>
<path d="M1376 5872 c-3 -4 4 -9 15 -9 23 -2 25 3 4 10 -8 4 -16 3 -19 -1z"/>
<path d="M1425 5870 c-3 -5 0 -12 6 -16 8 -4 9 -3 5 4 -4 7 -2 12 3 12 6 0 11
-6 11 -12 0 -9 4 -8 10 2 5 8 10 10 10 4 0 -10 59 -59 65 -52 1 1 6 13 9 26 6
16 3 22 -9 22 -9 0 -14 3 -11 8 2 4 -18 8 -45 9 -27 0 -52 -3 -54 -7z m92 -13
c4 -4 8 -15 9 -25 3 -16 2 -16 -10 1 -7 9 -18 17 -25 17 -6 0 -11 4 -11 9 0
10 26 9 37 -2z"/>
<path d="M1561 5854 c-15 -33 -12 -36 19 -17 14 8 17 12 7 9 -15 -5 -17 -2
-12 14 9 29 0 25 -14 -6z"/>
<path d="M1611 5868 c-1 -12 6 -18 19 -18 12 0 20 7 20 16 0 13 -3 14 -14 5
-11 -9 -15 -9 -19 1 -4 8 -6 7 -6 -4z"/>
<path d="M1841 5875 c-2 -24 14 -33 29 -17 13 14 12 15 -2 9 -9 -3 -19 -1 -22
6 -2 7 -5 8 -5 2z"/>
<path d="M1897 5873 c-9 -9 -9 -43 1 -43 4 0 8 11 8 25 2 27 1 29 -9 18z"/>
<path d="M1930 5869 c0 -5 5 -7 10 -4 6 3 10 8 10 11 0 2 -4 4 -10 4 -5 0 -10
-5 -10 -11z"/>
<path d="M2021 5867 c-1 -13 5 -18 21 -15 12 2 23 9 24 16 1 7 0 8 -3 2 -7
-14 -30 -13 -36 3 -3 7 -6 4 -6 -6z"/>
<path d="M2100 5870 c-9 -6 -10 -10 -3 -10 6 0 15 5 18 10 8 12 4 12 -15 0z"/>
<path d="M2152 5856 c0 -11 2 -16 6 -10 4 6 14 13 22 16 11 3 9 6 -6 10 -15 4
-20 0 -22 -16z"/>
<path d="M2300 5876 c0 -2 7 -6 15 -10 8 -3 15 -1 15 4 0 6 -7 10 -15 10 -8 0
-15 -2 -15 -4z"/>
<path d="M2755 5873 c17 -2 36 -12 44 -21 13 -16 13 -16 7 1 -3 10 -6 21 -6
23 0 2 -17 3 -37 3 -34 -2 -35 -2 -8 -6z"/>
<path d="M2830 5870 c0 -5 5 -10 11 -10 5 0 7 5 4 10 -3 6 -8 10 -11 10 -2 0
-4 -4 -4 -10z"/>
<path d="M2861 5864 c0 -11 3 -14 6 -6 3 7 2 16 -1 19 -3 4 -6 -2 -5 -13z"/>
<path d="M3060 5870 c0 -5 5 -10 10 -10 6 0 10 5 10 10 0 6 -4 10 -10 10 -5 0
-10 -4 -10 -10z"/>
<path d="M3097 5860 c-3 -11 -1 -20 4 -20 5 0 9 9 9 20 0 11 -2 20 -4 20 -2 0
-6 -9 -9 -20z"/>
<path d="M3241 5864 c0 -11 3 -14 6 -6 3 7 2 16 -1 19 -3 4 -6 -2 -5 -13z"/>
<path d="M3297 5859 c4 -12 0 -25 -8 -30 -11 -7 -10 -9 4 -9 9 0 17 6 17 14 0
8 3 21 6 30 4 10 1 16 -9 16 -10 0 -13 -6 -10 -21z"/>
<path d="M3371 5864 c0 -11 3 -14 6 -6 3 7 2 16 -1 19 -3 4 -6 -2 -5 -13z"/>
<path d="M3410 5871 c0 -6 4 -13 10 -16 6 -3 7 1 4 9 -7 18 -14 21 -14 7z"/>
<path d="M3581 5864 c0 -11 3 -14 6 -6 3 7 2 16 -1 19 -3 4 -6 -2 -5 -13z"/>
<path d="M3721 5863 c0 -13 2 -14 6 -4 4 10 7 10 13 1 5 -8 9 -7 13 4 5 11 1
16 -13 16 -13 0 -20 -6 -19 -17z"/>
<path d="M3951 5844 c-7 -20 -16 -32 -20 -27 -3 6 -15 7 -25 3 -19 -6 -19 -7
0 -15 39 -17 56 -16 50 2 -3 10 -1 25 4 33 8 12 10 11 10 -6 0 -11 7 -29 16
-40 8 -10 13 -13 9 -7 -3 7 -2 20 3 29 8 14 10 14 25 -1 15 -15 17 -15 17 -1
0 9 -8 16 -17 16 -15 0 -16 2 -3 10 8 5 11 10 5 10 -15 0 -31 -13 -38 -30 -4
-8 -4 2 -2 23 6 49 -16 50 -34 1z"/>
<path d="M4037 5859 c4 -13 8 -18 11 -10 2 7 -1 18 -6 23 -8 8 -9 4 -5 -13z"/>
<path d="M4085 5870 c3 -5 8 -10 11 -10 2 0 4 5 4 10 0 6 -5 10 -11 10 -5 0
-7 -4 -4 -10z"/>
<path d="M4205 5870 c-3 -5 1 -10 10 -10 9 0 13 5 10 10 -3 6 -8 10 -10 10 -2
0 -7 -4 -10 -10z"/>
<path d="M4319 5878 c-8 -29 -4 -40 18 -49 14 -5 28 -7 31 -5 2 3 -7 8 -21 11
-18 5 -24 12 -22 26 2 10 2 19 -1 19 -2 0 -4 -1 -5 -2z"/>
<path d="M4406 5867 c3 -10 9 -15 12 -12 3 3 0 11 -7 18 -10 9 -11 8 -5 -6z"/>
<path d="M4770 5870 c0 -5 5 -10 11 -10 5 0 7 5 4 10 -3 6 -8 10 -11 10 -2 0
-4 -4 -4 -10z"/>
<path d="M4879 5878 c-5 -18 -6 -38 -1 -34 7 8 12 36 6 36 -2 0 -4 -1 -5 -2z"/>
<path d="M5045 5870 c-3 -5 1 -10 10 -10 9 0 13 5 10 10 -3 6 -8 10 -10 10 -2
0 -7 -4 -10 -10z"/>
<path d="M5100 5871 c0 -6 4 -13 10 -16 6 -3 7 1 4 9 -7 18 -14 21 -14 7z"/>
<path d="M5472 5860 c0 -14 2 -19 5 -12 2 6 2 18 0 25 -3 6 -5 1 -5 -13z"/>
<path d="M5721 5864 c0 -11 3 -14 6 -6 3 7 2 16 -1 19 -3 4 -6 -2 -5 -13z"/>
<path d="M5740 5867 c0 -22 31 -19 37 3 4 13 3 13 -6 0 -10 -13 -12 -13 -21 0
-8 13 -10 12 -10 -3z"/>
<path d="M5830 5867 c18 -14 25 -47 11 -47 -5 0 -8 -9 -6 -20 3 -17 -2 -20
-28 -20 -22 0 -28 -3 -18 -9 7 -5 22 -6 32 -4 10 3 19 1 19 -5 0 -6 -8 -13
-17 -15 -14 -4 -13 -5 4 -6 12 0 24 5 26 12 4 7 6 6 6 -5 1 -9 -7 -19 -16 -21
-10 -3 -7 -4 8 -4 25 1 25 3 28 79 l2 78 -33 0 c-28 -1 -31 -3 -18 -13z"/>
<path d="M700 5850 c-6 -11 -8 -20 -6 -20 3 0 10 9 16 20 6 11 8 20 6 20 -3 0
-10 -9 -16 -20z"/>
<path d="M2555 5860 c-3 -6 1 -7 9 -4 18 7 21 14 7 14 -6 0 -13 -4 -16 -10z"/>
<path d="M3995 5860 c-3 -6 1 -7 9 -4 18 7 21 14 7 14 -6 0 -13 -4 -16 -10z"/>
<path d="M397 5854 c-8 -8 34 -64 46 -64 6 0 3 8 -6 18 -10 10 -17 24 -17 30
0 13 -15 24 -23 16z"/>
<path d="M595 5851 c-3 -6 -11 -9 -16 -6 -5 4 -9 1 -9 -4 0 -13 10 -14 30 -1
8 5 12 12 8 15 -3 4 -9 1 -13 -4z"/>
<path d="M1088 5833 c5 -21 7 -23 10 -9 2 10 0 22 -6 28 -6 6 -7 0 -4 -19z"/>
<path d="M2758 5853 c7 -3 16 -2 19 1 4 3 -2 6 -13 5 -11 0 -14 -3 -6 -6z"/>
<path d="M3275 5850 c-3 -5 -1 -10 4 -10 6 0 11 5 11 10 0 6 -2 10 -4 10 -3 0
-8 -4 -11 -10z"/>
<path d="M3481 5844 c0 -11 3 -14 6 -6 3 7 2 16 -1 19 -3 4 -6 -2 -5 -13z"/>
<path d="M3696 5845 c4 -11 9 -33 13 -50 4 -16 10 -25 13 -20 4 6 -2 29 -13
50 -11 22 -16 31 -13 20z"/>
<path d="M4483 5843 c14 -14 19 -15 29 -4 11 11 10 13 -4 8 -10 -4 -18 -2 -18
3 0 6 -5 10 -12 10 -8 0 -6 -6 5 -17z"/>
<path d="M4742 5844 c-14 -16 -5 -18 17 -5 7 5 9 11 5 14 -5 3 -15 -1 -22 -9z"/>
<path d="M4795 5850 c-3 -5 -3 -10 2 -10 4 0 1 -5 -7 -10 -18 -12 -2 -12 25 0
l20 9 -20 0 c-17 1 -17 3 -5 11 9 6 10 10 3 10 -6 0 -15 -4 -18 -10z"/>
<path d="M4914 5845 c-4 -8 -11 -12 -17 -8 -6 3 -7 1 -3 -6 4 -6 12 -8 18 -5
7 5 9 2 5 -8 -4 -12 -1 -14 13 -11 22 6 37 -16 19 -28 -11 -7 -10 -9 4 -9 12
0 17 8 17 25 0 19 -5 25 -21 25 -11 0 -17 5 -14 10 3 6 1 10 -5 10 -6 0 -8 5
-5 10 3 6 4 10 0 10 -3 0 -8 -7 -11 -15z"/>
<path d="M5010 5850 c0 -5 5 -10 11 -10 5 0 7 5 4 10 -3 6 -8 10 -11 10 -2 0
-4 -4 -4 -10z"/>
<path d="M5804 5848 c-5 -7 -3 -8 6 -3 10 6 12 4 7 -8 -4 -11 -2 -14 8 -11 8
3 11 12 8 20 -6 17 -19 18 -29 2z"/>
<path d="M250 5838 c0 -11 12 -10 30 2 12 7 10 9 -8 7 -12 0 -22 -5 -22 -9z"/>
<path d="M506 5841 c-4 -5 1 -11 9 -13 14 -3 14 -5 0 -23 -9 -11 -14 -15 -11
-8 4 6 2 14 -4 18 -11 7 -13 -15 -2 -30 12 -17 32 -16 25 2 -4 9 -2 14 3 10 6
-3 10 3 11 13 2 22 -22 46 -31 31z"/>
<path d="M1360 5832 c0 -12 3 -12 15 -2 8 7 15 13 15 15 0 1 -7 2 -15 2 -8 0
-15 -7 -15 -15z"/>
<path d="M1405 5840 c-4 -6 -4 -14 -1 -17 3 -4 6 0 6 8 0 12 2 12 10 -1 5 -8
12 -12 15 -9 3 4 -1 12 -9 18 -10 9 -16 9 -21 1z"/>
<path d="M1674 5838 c-4 -6 -19 -8 -35 -6 -16 3 -29 1 -29 -4 0 -5 -6 -6 -12
-2 -7 4 -10 4 -6 -1 13 -14 68 -13 84 2 8 8 21 12 29 9 8 -3 25 -1 37 3 19 7
15 9 -20 9 -23 0 -45 -5 -48 -10z"/>
<path d="M3395 5840 c-3 -5 -1 -10 4 -10 6 0 11 5 11 10 0 6 -2 10 -4 10 -3 0
-8 -4 -11 -10z"/>
<path d="M4573 5843 c-7 -2 -10 -10 -7 -17 3 -8 -2 -16 -10 -19 -9 -4 -16 -12
-16 -19 0 -10 2 -10 9 1 5 7 13 11 19 7 5 -3 12 7 15 22 6 31 6 31 -10 25z"/>
<path d="M4696 5842 c-3 -5 1 -9 9 -9 8 0 12 4 9 9 -3 4 -7 8 -9 8 -2 0 -6 -4
-9 -8z"/>
<path d="M4840 5839 c0 -5 5 -7 10 -4 6 3 10 8 10 11 0 2 -4 4 -10 4 -5 0 -10
-5 -10 -11z"/>
<path d="M4980 5840 c-13 -8 -12 -10 3 -10 9 0 17 5 17 10 0 12 -1 12 -20 0z"/>
<path d="M5048 5843 c7 -3 16 -2 19 1 4 3 -2 6 -13 5 -11 0 -14 -3 -6 -6z"/>
<path d="M5080 5840 c0 -5 5 -10 11 -10 5 0 7 5 4 10 -3 6 -8 10 -11 10 -2 0
-4 -4 -4 -10z"/>
<path d="M5180 5840 c0 -5 5 -10 11 -10 5 0 7 5 4 10 -3 6 -8 10 -11 10 -2 0
-4 -4 -4 -10z"/>
<path d="M5487 5828 c-6 -22 -5 -22 8 -4 7 10 18 15 24 11 6 -3 11 -1 11 4 0
21 -38 11 -43 -11z"/>
<path d="M5708 5838 c5 -5 16 -8 23 -6 8 3 3 7 -10 11 -17 4 -21 3 -13 -5z"/>
<path d="M458 5834 c-8 -8 3 -44 14 -44 5 0 4 8 -1 19 -6 10 -7 21 -4 25 3 3
4 6 1 6 -2 0 -7 -3 -10 -6z"/>
<path d="M3320 5820 c0 -11 2 -20 4 -20 2 0 6 9 9 20 3 11 1 20 -4 20 -5 0 -9
-9 -9 -20z"/>
<path d="M4395 5829 c-4 -6 -5 -12 -2 -15 2 -3 7 2 10 11 7 17 1 20 -8 4z"/>
<path d="M4670 5831 c0 -6 4 -13 10 -16 6 -3 7 1 4 9 -7 18 -14 21 -14 7z"/>
<path d="M126 5815 c-3 -8 -1 -17 3 -20 5 -3 11 2 15 10 3 8 1 17 -3 20 -5 3
-11 -2 -15 -10z"/>
<path d="M174 5821 c4 -5 3 -11 -1 -14 -5 -2 -3 -3 3 -1 6 1 17 -3 24 -9 8 -8
8 -5 -1 11 -8 12 -17 22 -22 22 -4 0 -6 -4 -3 -9z"/>
<path d="M5137 5823 c-4 -3 -7 -11 -7 -17 0 -6 5 -5 12 2 6 6 9 14 7 17 -3 3
-9 2 -12 -2z"/>
<path d="M84 5799 c0 -20 11 -25 20 -10 3 5 0 13 -7 19 -10 8 -13 6 -13 -9z"/>
<path d="M289 5803 c-13 -17 -13 -17 6 -3 11 8 22 16 24 17 2 2 0 3 -6 3 -6 0
-17 -8 -24 -17z"/>
<path d="M774 5809 c-3 -6 0 -15 7 -20 19 -12 29 -11 29 1 0 6 -3 9 -7 9 -20
-3 -26 2 -13 11 9 6 10 10 3 10 -6 0 -15 -5 -19 -11z"/>
<path d="M4323 5805 c0 -7 6 -11 14 -8 7 3 13 6 13 8 0 2 -6 5 -13 8 -8 3 -14
-1 -14 -8z"/>
<path d="M4410 5805 c0 -8 2 -15 4 -15 2 0 6 7 10 15 3 8 1 15 -4 15 -6 0 -10
-7 -10 -15z"/>
<path d="M4855 5810 c-4 -6 -11 -8 -16 -5 -5 4 -9 1 -9 -5 0 -7 7 -10 15 -6 8
3 15 1 15 -3 0 -5 -6 -12 -12 -14 -9 -4 -8 -6 3 -6 8 -1 20 4 27 11 15 15 16
3 2 -23 -7 -13 -7 -19 0 -19 11 0 12 3 15 43 2 23 -1 26 -18 21 -13 -4 -17 -2
-13 5 4 6 5 11 2 11 -3 0 -8 -5 -11 -10z"/>
<path d="M5000 5811 c0 -6 4 -13 10 -16 6 -3 7 1 4 9 -7 18 -14 21 -14 7z"/>
<path d="M5095 5810 c3 -5 8 -10 11 -10 2 0 4 5 4 10 0 6 -5 10 -11 10 -5 0
-7 -4 -4 -10z"/>
<path d="M5216 5804 c-5 -13 -9 -14 -21 -4 -10 9 -18 9 -32 0 -16 -10 -15 -10
5 -5 25 7 30 -10 6 -19 -9 -4 -15 -9 -12 -12 7 -7 67 29 73 44 2 6 0 12 -4 12
-5 0 -12 -7 -15 -16z"/>
<path d="M5351 5812 c0 -4 4 -16 9 -27 7 -17 9 -17 9 -3 1 10 7 16 14 14 6 -1
9 -1 4 1 -4 3 -5 8 -3 12 3 4 -4 8 -15 8 -10 1 -19 -1 -18 -5z"/>
<path d="M5443 5813 c9 -2 14 -9 11 -15 -4 -7 -2 -8 4 -4 20 12 13 26 -10 25
-18 -1 -19 -2 -5 -6z"/>
<path d="M34 5801 c4 -6 0 -14 -11 -19 -10 -4 -19 -13 -21 -20 -1 -8 2 -11 7
-8 5 4 11 3 14 -1 2 -5 2 -2 0 6 -2 8 2 11 12 7 18 -7 21 29 3 40 -7 4 -8 3
-4 -5z"/>
<path d="M916 5801 c-4 -7 -5 -15 -2 -18 9 -9 19 4 14 18 -4 11 -6 11 -12 0z"/>
<path d="M3686 5794 c-4 -9 -4 -19 -1 -22 2 -3 7 3 11 12 4 9 4 19 1 22 -2 3
-7 -3 -11 -12z"/>
<path d="M4373 5798 c1 -6 -9 -15 -23 -19 -24 -7 -23 -7 6 -8 33 -1 54 23 28
33 -7 3 -13 0 -11 -6z"/>
<path d="M4511 5794 c0 -11 3 -14 6 -6 3 7 2 16 -1 19 -3 4 -6 -2 -5 -13z"/>
<path d="M4646 5793 c-6 -14 -5 -15 5 -6 7 7 10 15 7 18 -3 3 -9 -2 -12 -12z"/>
<path d="M5520 5800 c0 -5 5 -10 11 -10 5 0 7 5 4 10 -3 6 -8 10 -11 10 -2 0
-4 -4 -4 -10z"/>
<path d="M5808 5803 c7 -3 16 -2 19 1 4 3 -2 6 -13 5 -11 0 -14 -3 -6 -6z"/>
<path d="M860 5790 c0 -5 5 -10 10 -10 6 0 10 5 10 10 0 6 -4 10 -10 10 -5 0
-10 -4 -10 -10z"/>
<path d="M3858 5778 c2 -10 6 -18 8 -18 2 0 8 8 13 18 7 14 6 18 -8 18 -12 0
-17 -6 -13 -18z"/>
<path d="M5245 5790 c-3 -6 1 -7 9 -4 9 3 16 1 16 -5 0 -6 -5 -11 -11 -11 -5
0 -7 -5 -3 -11 5 -8 10 -6 16 5 15 26 -11 51 -27 26z"/>
<path d="M5290 5789 c0 -4 7 -9 15 -13 9 -3 15 0 15 8 0 7 -7 13 -15 13 -8 0
-15 -4 -15 -8z"/>
<path d="M4910 5783 c0 -6 -3 -18 -6 -27 -4 -11 0 -14 15 -13 12 1 21 4 21 7
0 12 -29 45 -30 33z"/>
<path d="M4980 5780 c0 -5 5 -10 10 -10 6 0 10 5 10 10 0 6 -4 10 -10 10 -5 0
-10 -4 -10 -10z"/>
<path d="M190 5769 c0 -5 5 -7 10 -4 6 3 10 8 10 11 0 2 -4 4 -10 4 -5 0 -10
-5 -10 -11z"/>
<path d="M4790 5769 c0 -8 61 -21 68 -14 3 3 -2 5 -11 5 -9 0 -17 4 -17 8 0 4
-9 8 -20 8 -11 0 -20 -3 -20 -7z"/>
<path d="M5330 5770 c0 -5 5 -10 10 -10 6 0 10 5 10 10 0 6 -4 10 -10 10 -5 0
-10 -4 -10 -10z"/>
<path d="M5380 5770 c0 -5 7 -7 15 -4 8 4 15 8 15 10 0 2 -7 4 -15 4 -8 0 -15
-4 -15 -10z"/>
<path d="M85 5760 c3 -5 8 -10 11 -10 2 0 4 5 4 10 0 6 -5 10 -11 10 -5 0 -7
-4 -4 -10z"/>
<path d="M3965 5760 c3 -5 8 -10 11 -10 2 0 4 5 4 10 0 6 -5 10 -11 10 -5 0
-7 -4 -4 -10z"/>
<path d="M3992 5758 c2 -6 10 -14 16 -16 7 -2 10 2 6 12 -7 18 -28 22 -22 4z"/>
<path d="M5220 5759 c0 -5 5 -7 10 -4 6 3 10 8 10 11 0 2 -4 4 -10 4 -5 0 -10
-5 -10 -11z"/>
<path d="M5660 5759 c0 -5 5 -7 10 -4 6 3 10 8 10 11 0 2 -4 4 -10 4 -5 0 -10
-5 -10 -11z"/>
<path d="M4950 5749 c0 -5 5 -7 10 -4 6 3 10 8 10 11 0 2 -4 4 -10 4 -5 0 -10
-5 -10 -11z"/>
<path d="M53 5745 c11 -9 66 -22 62 -15 -3 5 3 10 12 12 10 2 -3 4 -29 4 -27
1 -47 0 -45 -1z"/>
<path d="M4218 5743 c7 -3 16 -2 19 1 4 3 -2 6 -13 5 -11 0 -14 -3 -6 -6z"/>
<path d="M5217 5743 c-9 -2 -15 -8 -12 -13 6 -10 45 -1 45 11 0 9 -4 10 -33 2z"/>
<path d="M5560 5740 c8 -5 24 -9 35 -9 l20 0 -20 9 c-11 5 -27 9 -35 9 -13 1
-13 0 0 -9z"/>
<path d="M9 5691 c11 -7 11 -9 0 -14 -8 -3 -9 -6 -3 -6 6 -1 17 6 24 14 10 13
9 15 -11 15 -17 0 -20 -3 -10 -9z"/>
<path d="M5826 2465 c4 -8 8 -15 10 -15 2 0 4 7 4 15 0 8 -4 15 -10 15 -5 0
-7 -7 -4 -15z"/>
<path d="M930 1930 c-1 -3 -3 -18 -5 -35 -4 -24 -3 -26 5 -10 8 19 9 19 9 -2
1 -25 16 -39 26 -23 3 5 2 10 -3 10 -5 0 -14 15 -20 33 -5 17 -11 30 -12 27z"/>
<path d="M982 1855 c-11 -12 -10 -15 3 -15 8 0 15 7 15 15 0 18 -2 18 -18 0z"/>
<path d="M906 1821 c4 -20 2 -31 -3 -28 -5 4 -17 -9 -26 -28 -17 -36 -14 -42
13 -25 11 7 11 10 2 10 -10 0 -10 3 0 14 13 14 32 11 23 -4 -3 -4 4 -6 15 -3
25 7 25 12 3 29 -15 11 -16 15 -4 23 10 6 11 13 2 27 -10 18 -10 18 -11 -1
l-1 -20 -10 20 c-7 15 -7 11 -3 -14z"/>
<path d="M962 1813 c-10 -4 -9 -8 5 -18 20 -15 33 -11 33 11 0 14 -14 17 -38
7z"/>
<path d="M866 1795 c-3 -8 -1 -15 4 -15 6 0 10 7 10 15 0 8 -2 15 -4 15 -2 0
-6 -7 -10 -15z"/>
<path d="M957 1757 c-3 -8 -1 -18 6 -21 7 -3 -4 -4 -23 -1 -35 5 -35 5 -7 -6
33 -13 48 -3 38 25 -7 17 -8 17 -14 3z"/>
<path d="M998 1728 c5 -7 12 -24 15 -38 4 -22 4 -21 6 6 1 21 -5 34 -15 38
-13 5 -14 3 -6 -6z"/>
<path d="M890 1718 c0 -14 8 -18 38 -17 34 2 34 2 7 6 -16 3 -33 10 -37 16 -5
8 -8 6 -8 -5z"/>
<path d="M991 1683 c-1 -6 -4 -20 -7 -30 -5 -15 -4 -15 5 -3 9 12 11 13 11 1
0 -8 2 -12 5 -9 3 3 1 16 -4 29 -5 13 -10 19 -10 12z"/>
<path d="M938 1663 c7 -3 16 -2 19 1 4 3 -2 6 -13 5 -11 0 -14 -3 -6 -6z"/>
<path d="M1030 1649 c0 -5 5 -7 10 -4 6 3 10 8 10 11 0 2 -4 4 -10 4 -5 0 -10
-5 -10 -11z"/>
<path d="M1050 1625 c0 -8 2 -15 4 -15 2 0 6 7 10 15 3 8 1 15 -4 15 -6 0 -10
-7 -10 -15z"/>
<path d="M1111 1603 c-1 -35 17 -83 31 -83 4 0 8 5 8 10 0 6 -5 10 -11 10 -8
0 -7 5 1 15 7 9 10 18 6 22 -3 3 -6 1 -6 -5 0 -7 -4 -12 -9 -12 -6 0 -8 8 -7
18 2 9 0 26 -5 37 -6 16 -8 14 -8 -12z"/>
<path d="M1018 1613 c7 -3 16 -2 19 1 4 3 -2 6 -13 5 -11 0 -14 -3 -6 -6z"/>
<path d="M1080 1604 c0 -10 -6 -14 -15 -11 -8 4 -17 2 -20 -3 -4 -6 3 -10 14
-10 14 0 21 -6 21 -20 0 -11 -5 -20 -11 -20 -5 0 -7 -5 -4 -10 4 -7 11 -6 18
2 13 14 17 88 5 88 -5 0 -8 -7 -8 -16z"/>
<path d="M1156 1520 c4 -34 -2 -37 -28 -13 -10 9 -18 12 -18 7 0 -5 11 -17 25
-27 22 -16 25 -16 33 0 9 14 11 14 21 -5 9 -18 9 -21 -3 -16 -8 3 -17 1 -21
-5 -3 -6 -13 -11 -21 -11 -8 0 -12 5 -9 10 3 6 -3 10 -14 10 -11 0 -23 -5 -27
-12 -5 -7 -3 -8 6 -3 8 5 21 -2 35 -19 13 -15 27 -27 32 -28 4 0 7 -4 6 -9 -2
-5 4 -9 12 -9 9 0 15 7 13 17 -2 10 5 19 17 22 26 8 26 26 0 46 -19 14 -19 15
-1 8 13 -4 17 -3 12 5 -4 7 -14 12 -22 12 -8 0 -14 9 -14 19 0 15 -18 31 -35
31 -1 0 -1 -13 1 -30z m49 -70 c17 -7 17 -9 3 -9 -10 -1 -18 -5 -18 -10 0 -5
-9 -7 -20 -4 -16 4 -18 8 -9 19 13 16 16 16 44 4z"/>
<path d="M1026 1518 c3 -5 10 -6 15 -3 13 9 11 12 -6 12 -8 0 -12 -4 -9 -9z"/>
<path d="M1001 1503 c-1 -16 5 -23 17 -23 10 0 13 3 6 8 -6 4 -14 14 -17 22
-4 10 -6 8 -6 -7z"/>
<path d="M1070 1500 c-9 -6 -10 -10 -3 -10 6 0 15 5 18 10 8 12 4 12 -15 0z"/>
<path d="M1040 1446 c0 -2 7 -6 15 -10 8 -3 15 -1 15 4 0 6 -7 10 -15 10 -8 0
-15 -2 -15 -4z"/>
<path d="M1076 1402 c-3 -5 1 -9 9 -9 8 0 15 4 15 9 0 4 -4 8 -9 8 -6 0 -12
-4 -15 -8z"/>
<path d="M1110 1406 c0 -2 7 -7 16 -10 8 -3 12 -2 9 4 -6 10 -25 14 -25 6z"/>
<path d="M1118 1378 c5 -5 16 -8 23 -6 8 3 3 7 -10 11 -17 4 -21 3 -13 -5z"/>
<path d="M1095 1360 c-3 -5 -1 -10 4 -10 6 0 11 5 11 10 0 6 -2 10 -4 10 -3 0
-8 -4 -11 -10z"/>
<path d="M1134 1351 c4 -5 0 -12 -6 -14 -7 -3 -2 -6 11 -6 20 -1 21 1 11 14
-14 16 -25 21 -16 6z"/>
<path d="M1220 1351 c0 -6 4 -12 8 -15 5 -3 9 1 9 9 0 8 -4 15 -9 15 -4 0 -8
-4 -8 -9z"/>
<path d="M1169 1330 c-4 -25 -3 -30 6 -30 6 0 10 3 10 8 0 4 4 13 8 20 5 8 3
12 -7 12 -9 0 -17 -4 -17 -10z"/>
<path d="M1133 1291 c-6 -10 -8 -23 -3 -30 5 -9 10 -10 14 -2 4 6 2 11 -4 11
-6 0 -8 5 -5 10 4 6 11 8 16 5 5 -4 9 -2 9 4 0 19 -16 20 -27 2z"/>
<path d="M1222 1280 c0 -14 2 -19 5 -12 2 6 2 18 0 25 -3 6 -5 1 -5 -13z"/>
<path d="M1178 1277 c-11 -9 -14 -18 -7 -28 7 -11 9 -11 9 4 0 9 7 17 15 17 8
0 15 5 15 10 0 13 -11 12 -32 -3z"/>
<path d="M1232 1208 c-1 -26 -7 -49 -14 -51 -10 -4 -10 -6 0 -6 18 -1 24 20
19 65 -4 38 -4 37 -5 -8z"/>
<path d="M1211 1184 c0 -11 3 -14 6 -6 3 7 2 16 -1 19 -3 4 -6 -2 -5 -13z"/>
<path d="M1188 1133 c7 -3 16 -2 19 1 4 3 -2 6 -13 5 -11 0 -14 -3 -6 -6z"/>
<path d="M1265 1099 c-13 -5 -15 -8 -5 -8 13 -1 13 -2 0 -11 -8 -5 -12 -11 -9
-14 8 -9 42 19 38 31 -2 6 -12 7 -24 2z"/>
<path d="M1222 1078 c-17 -17 -15 -45 3 -52 8 -3 15 -1 15 3 0 5 -6 11 -12 14
-10 3 -10 9 0 26 14 24 12 27 -6 9z"/>
<path d="M1240 1000 c0 -5 5 -10 11 -10 5 0 7 5 4 10 -3 6 -8 10 -11 10 -2 0
-4 -4 -4 -10z"/>
<path d="M1465 590 c5 -14 8 -36 7 -50 -1 -18 1 -21 7 -11 7 11 9 11 13 0 3
-8 9 -11 13 -7 4 4 3 13 -1 20 -5 7 -7 24 -5 38 2 14 0 22 -5 18 -4 -4 -14 -2
-22 5 -13 10 -14 8 -7 -13z"/>
<path d="M1490 506 c0 -6 32 -66 35 -66 2 0 1 10 -3 22 -6 23 5 20 42 -11 15
-13 18 -13 14 -1 -3 11 -88 65 -88 56z"/>
<path d="M1626 503 c-3 -3 -6 -16 -5 -27 0 -15 2 -17 6 -6 3 8 10 18 16 21 6
4 6 9 -1 12 -5 4 -12 4 -16 0z"/>
<path d="M1915 450 c-3 -5 -3 -10 0 -10 4 0 -1 -7 -10 -16 -8 -9 -23 -13 -33
-10 -16 6 -16 5 1 -8 20 -15 23 -30 4 -23 -7 3 -13 -3 -13 -14 0 -14 3 -16 15
-6 12 10 14 9 8 -5 -3 -10 -2 -18 3 -18 6 0 10 7 10 15 0 8 9 15 19 15 10 0
21 7 25 15 3 8 11 15 18 15 9 0 9 -3 -2 -10 -18 -11 -6 -25 13 -13 10 6 12 16
5 41 -7 27 -12 31 -23 22 -15 -13 -39 -4 -30 11 4 5 4 9 1 9 -3 0 -8 -4 -11
-10z m50 -30 c3 -5 1 -10 -4 -10 -6 0 -11 5 -11 10 0 6 2 10 4 10 3 0 8 -4 11
-10z m-31 -8 c2 -4 1 -14 -4 -22 -7 -11 -12 -12 -21 -3 -6 6 -8 16 -5 22 8 13
23 14 30 3z"/>
<path d="M1661 434 c0 -11 3 -14 6 -6 3 7 2 16 -1 19 -3 4 -6 -2 -5 -13z"/>
<path d="M1578 423 c7 -3 16 -2 19 1 4 3 -2 6 -13 5 -11 0 -14 -3 -6 -6z"/>
<path d="M1735 349 c-11 -17 1 -21 15 -4 8 9 8 15 2 15 -6 0 -14 -5 -17 -11z"/>
<path d="M1823 352 c-6 -4 -7 -15 -2 -27 7 -19 8 -18 8 4 1 20 3 22 16 11 9
-7 17 -11 20 -9 8 8 -32 27 -42 21z"/>
<path d="M1771 323 c0 -13 -6 -23 -12 -23 -6 0 -9 6 -6 14 4 10 0 12 -13 9
-20 -5 -18 -10 23 -42 16 -12 17 -12 11 5 -6 16 -5 17 7 7 18 -17 30 -16 23 2
-4 8 -10 13 -14 10 -5 -3 -11 5 -13 17 l-4 23 -2 -22z"/>
<path d="M1621 299 c-13 -18 -19 -29 -13 -25 6 3 14 1 17 -4 9 -15 45 18 44
39 0 14 -1 14 -6 1 -3 -8 -11 -18 -17 -22 -22 -15 -26 -8 -10 17 23 36 12 31
-15 -6z"/>
<path d="M2020 315 c-10 -12 -10 -15 4 -15 9 0 16 7 16 15 0 8 -2 15 -4 15 -2
0 -9 -7 -16 -15z"/>
<path d="M2050 318 c0 -9 5 -20 11 -23 17 -11 20 0 4 21 -13 17 -14 17 -15 2z"/>
<path d="M1705 289 c-4 -6 -5 -12 -2 -15 2 -3 7 2 10 11 7 17 1 20 -8 4z"/>
<path d="M1833 265 c0 -8 4 -12 9 -9 5 3 6 10 3 15 -9 13 -12 11 -12 -6z"/>
<path d="M1913 234 c0 -7 6 -10 14 -7 7 3 13 8 13 12 0 4 -6 8 -13 8 -8 0 -14
-6 -14 -13z"/>
<path d="M2230 238 c0 -20 25 -24 36 -6 5 7 3 8 -6 3 -7 -4 -16 -2 -21 6 -7
11 -9 10 -9 -3z"/>
<path d="M1868 233 c7 -3 16 -2 19 1 4 3 -2 6 -13 5 -11 0 -14 -3 -6 -6z"/>
<path d="M2060 220 c-9 -6 -10 -10 -3 -10 6 0 15 5 18 10 8 12 4 12 -15 0z"/>
<path d="M1766 212 c-3 -5 1 -9 9 -9 8 0 12 4 9 9 -3 4 -7 8 -9 8 -2 0 -6 -4
-9 -8z"/>
<path d="M1890 211 c0 -8 -7 -11 -17 -6 -15 5 -16 4 -5 -6 9 -10 15 -10 24 -1
6 6 9 15 5 19 -4 3 -7 1 -7 -6z"/>
<path d="M1966 197 c-17 -18 -18 -20 -2 -14 10 4 25 7 34 7 14 0 14 2 3 9 -11
7 -11 9 0 14 11 4 11 5 -1 5 -8 0 -24 -9 -34 -21z"/>
<path d="M1709 191 c11 -7 11 -9 0 -14 -10 -4 -10 -6 -1 -6 6 -1 12 -6 12 -12
0 -5 -4 -7 -10 -4 -5 3 -10 1 -10 -4 0 -6 5 -11 12 -11 6 0 8 -3 4 -7 -4 -4
-16 3 -26 17 -19 24 -19 24 -15 3 4 -25 36 -72 48 -73 11 0 9 14 -4 27 -8 8
-5 14 10 23 12 6 25 9 29 7 4 -3 16 -1 27 4 14 6 7 7 -22 4 -33 -3 -41 -1 -36
11 3 8 10 14 17 14 6 0 2 7 -8 15 -11 8 -25 15 -30 15 -6 0 -5 -4 3 -9z"/>
<path d="M5740 175 c-10 -12 -10 -15 2 -15 8 0 15 7 15 15 0 8 -1 15 -2 15 -2
0 -8 -7 -15 -15z"/>
<path d="M1980 170 c0 -5 5 -10 11 -10 5 0 7 5 4 10 -3 6 -8 10 -11 10 -2 0
-4 -4 -4 -10z"/>
<path d="M1810 155 c0 -5 5 -17 10 -25 5 -8 10 -10 10 -5 0 6 -5 17 -10 25 -5
8 -10 11 -10 5z"/>
<path d="M2110 144 c0 -10 5 -26 10 -34 8 -11 9 -7 4 15 -8 37 -14 45 -14 19z"/>
<path d="M2245 150 c-3 -6 1 -7 9 -4 18 7 21 14 7 14 -6 0 -13 -4 -16 -10z"/>
<path d="M1948 143 c7 -3 16 -2 19 1 4 3 -2 6 -13 5 -11 0 -14 -3 -6 -6z"/>
<path d="M2086 132 c-2 -4 -1 -14 4 -22 7 -11 9 -9 7 8 -1 24 -3 26 -11 14z"/>
<path d="M5626 125 c-9 -9 -16 -14 -16 -10 0 3 -11 -2 -25 -11 -14 -9 -22 -20
-19 -25 3 -5 20 1 37 13 18 13 35 23 40 23 4 0 7 4 8 8 1 17 -9 18 -25 2z"/>
<path d="M1787 119 c7 -7 15 -10 18 -7 3 3 -2 9 -12 12 -14 6 -15 5 -6 -5z"/>
<path d="M2042 110 c0 -14 2 -19 5 -12 2 6 2 18 0 25 -3 6 -5 1 -5 -13z"/>
<path d="M1737 110 c8 -9 8 -20 -3 -46 -22 -53 -19 -64 20 -64 28 0 34 4 39
26 3 18 -1 31 -14 42 -25 21 -24 36 0 22 11 -5 27 -7 35 -4 9 3 16 1 16 -5 0
-6 -4 -11 -10 -11 -5 0 -10 -4 -10 -10 0 -16 17 -12 24 6 8 21 -5 39 -29 40
-11 0 -33 4 -50 8 -23 6 -27 5 -18 -4z m37 -53 c8 -8 10 -20 5 -32 -7 -19 -8
-19 -8 3 -1 12 -5 22 -11 22 -5 0 -10 5 -10 10 0 14 9 13 24 -3z"/>
<path d="M1861 117 c2 -1 13 -9 24 -17 19 -14 19 -14 6 3 -7 9 -18 17 -24 17
-6 0 -8 -1 -6 -3z"/>
<path d="M1982 80 c0 -14 2 -19 5 -12 2 6 2 18 0 25 -3 6 -5 1 -5 -13z"/>
<path d="M2100 69 c0 -5 5 -7 10 -4 6 3 10 8 10 11 0 2 -4 4 -10 4 -5 0 -10
-5 -10 -11z"/>
<path d="M2190 70 c0 -5 5 -10 10 -10 6 0 10 5 10 10 0 6 -4 10 -10 10 -5 0
-10 -4 -10 -10z"/>
<path d="M1700 60 c0 -5 5 -10 11 -10 5 0 7 5 4 10 -3 6 -8 10 -11 10 -2 0 -4
-4 -4 -10z"/>
<path d="M2134 58 c-4 -6 -3 -8 4 -4 5 3 12 2 14 -3 1 -5 9 -3 16 5 11 12 9
14 -7 14 -11 0 -23 -5 -27 -12z"/>
<path d="M1954 53 c5 -9 0 -13 -13 -13 -12 0 -21 -4 -21 -9 0 -8 49 -5 58 3 1
2 -5 9 -15 17 -11 9 -14 10 -9 2z"/>
<path d="M2077 54 c-3 -5 1 -15 9 -22 16 -14 18 -5 5 17 -5 7 -11 9 -14 5z"/>
<path d="M2220 56 c0 -2 7 -7 16 -10 8 -3 12 -2 9 4 -6 10 -25 14 -25 6z"/>
<path d="M5737 53 c-2 -5 0 -19 4 -33 7 -23 7 -22 6 8 -1 33 -3 37 -10 25z"/>
<path d="M1867 43 c-11 -10 -8 -43 3 -43 6 0 10 11 10 25 0 26 -2 29 -13 18z"/>
<path d="M1800 20 c0 -5 9 -10 20 -10 11 0 20 5 20 10 0 6 -9 10 -20 10 -11 0
-20 -4 -20 -10z"/>
<path d="M5520 9 c0 -5 5 -7 10 -4 6 3 10 8 10 11 0 2 -4 4 -10 4 -5 0 -10 -5
-10 -11z"/>
</g>
</svg>
